SplineFontDB: 3.0
FontName: Oxygen-Light
FullName: Oxygen Light
FamilyName: Oxygen Light
Weight: Light
Copyright: vernon adams
Version: 
ItalicAngle: 0
UnderlinePosition: 0
UnderlineWidth: 0
Ascent: 1638
Descent: 410
UFOAscent: 1514
UFODescent: -410
LayerCount: 2
Layer: 0 0 "Back"  1
Layer: 1 0 "Fore"  0
NeedsXUIDChange: 1
FSType: 0
OS2Version: 0
OS2_WeightWidthSlopeOnly: 0
OS2_UseTypoMetrics: 0
CreationTime: 1335719823
ModificationTime: 1335720338
PfmFamily: 33
TTFWeight: 300
TTFWidth: 5
LineGap: 0
VLineGap: 0
Panose: 2 0 4 3 0 0 0 0 0 4
OS2TypoAscent: 1901
OS2TypoAOffset: 0
OS2TypoDescent: -483
OS2TypoDOffset: 0
OS2TypoLinegap: 0
OS2WinAscent: 1901
OS2WinAOffset: 0
OS2WinDescent: 483
OS2WinDOffset: 0
HheadAscent: 1901
HheadAOffset: 0
HheadDescent: -483
HheadDOffset: 0
OS2SubXSize: 0
OS2SubYSize: 0
OS2SubXOff: 0
OS2SubYOff: 0
OS2SupXSize: 0
OS2SupYSize: 0
OS2SupXOff: 0
OS2SupYOff: 0
OS2StrikeYSize: 0
OS2StrikeYPos: 0
OS2Vendor: 'newt'
Lookup: 258 0 0 "'kern' Horizontal Kerning in Latin lookup 0"  {"'kern' Horizontal Kerning in Latin lookup 0 subtable"  } ['kern' ('latn' <'dflt' > ) ]
MarkAttachClasses: 1
DEI: 91125
LangName: 1033 "" "" "" "" "" "" "" "" "" "vernon adams" 
PickledData: "(dp1
S'com.typemytype.robofont.foreground.layerStrokeColor'
p2
(F0.5
F0
F0.5
F0.69999999999999996
tp3
sS'com.typemytype.robofont.back.layerStrokeColor'
p4
(F0.5
F1
F0
F0.69999999999999996
tp5
sS'com.typemytype.robofont.layerOrder'
p6
(S'back'
p7
tp8
sS'com.typemytype.robofont.segmentType'
p9
S'curve'
p10
sS'org.robofab.glyphOrder'
p11
(S'A'
S'Aacute'
p12
S'Abreve'
p13
S'Acircumflex'
p14
S'Adieresis'
p15
S'Agrave'
p16
S'Amacron'
p17
S'Aogonek'
p18
S'Aring'
p19
S'Aringacute'
p20
S'Atilde'
p21
S'AE'
p22
S'AEacute'
p23
S'uni01E2'
p24
S'B'
S'C'
S'Cacute'
p25
S'Ccaron'
p26
S'Ccedilla'
p27
S'Ccircumflex'
p28
S'Cdotaccent'
p29
S'D'
S'Eth'
p30
S'Dcaron'
p31
S'E'
S'Eacute'
p32
S'Ebreve'
p33
S'Ecaron'
p34
S'Ecircumflex'
p35
S'Edieresis'
p36
S'Edotaccent'
p37
S'Egrave'
p38
S'Emacron'
p39

StartChar: A
Encoding: 65 65 0
Width: 1276
VWidth: 0
Flags: HW
PickledData: "(dp1
S'com.typemytype.robofont.layerData'
p2
(dp3
s."
LayerCount: 2
Fore
SplineSet
902 613 m 1
 902 613 677 1249 647 1363 c 1
 620 1264 380 613 380 613 c 1
 902 613 l 1
1138 0 m 1
 952 505 l 1
 327 505 l 1
 133 0 l 1
 6 0 l 1
 587 1493 l 1
 710 1493 l 1
 1270 0 l 1
 1138 0 l 1
EndSplineSet
EndChar

StartChar: AE
Encoding: 198 198 1
Width: 2125
VWidth: 0
Flags: HW
LayerCount: 2
Fore
SplineSet
557 600 m 1
 1165 600 l 1
 1099 1525 l 1
 557 600 l 1
107 0 m 1
 1056 1626 l 1
 1971 1626 l 1
 1978 1491 l 1
 1228 1491 l 1
 1270 903 l 1
 1938 903 l 1
 1938 770 l 1
 1290 770 l 1
 1333 133 l 1
 1985 133 l 1
 1991 0 l 1
 1221 0 l 1
 1190 461 l 1
 477 461 l 1
 221 0 l 1
 107 0 l 1
EndSplineSet
EndChar

StartChar: Alphatonos
Encoding: 902 902 9
Width: 468
VWidth: 0
Flags: HW
LayerCount: 2
Fore
SplineSet
237 796 m 0
 326 796 370 730 370 664 c 0
 370 598 326 532 237 532 c 0
 149 532 104 598 104 664 c 0
 104 730 149 796 237 796 c 0
EndSplineSet
EndChar

StartChar: B
Encoding: 66 66 15
Width: 1265
VWidth: 0
Flags: HW
PickledData: "(dp1
S'com.typemytype.robofont.layerData'
p2
(dp3
s."
LayerCount: 2
Fore
SplineSet
182 1488 m 1
 588 1488 l 2
 962 1488 1140 1374 1140 1127 c 0
 1140 1069 1126 863 873 785 c 1
 1090 753 1195 594 1195 419 c 0
 1195 168 1044 0 686 0 c 2
 182 0 l 1
 182 1488 l 1
310 825 m 1
 666 825 l 2
 864 825 999 878 999 1107 c 0
 999 1324 847 1384 582 1384 c 2
 310 1384 l 1
 310 825 l 1
310 727 m 1
 310 100 l 1
 653 100 l 2
 920 100 1058 201 1058 419 c 0
 1058 659 898 727 595 727 c 2
 310 727 l 1
EndSplineSet
EndChar

StartChar: C
Encoding: 67 67 17
Width: 1286
VWidth: 0
Flags: HW
PickledData: "(dp1
S'com.typemytype.robofont.layerData'
p2
(dp3
s."
LayerCount: 2
Fore
SplineSet
827 1409 m 0
 452 1409 260 1112 260 742 c 0
 260 387 430 84 832 84 c 0
 961 84 1080 125 1182 171 c 1
 1208 68 l 1
 1120 13 992 -23 813 -23 c 0
 345 -23 118 308 118 749 c 0
 118 1189 373 1516 826 1516 c 0
 1011 1516 1141 1471 1240 1412 c 1
 1179 1313 l 1
 1081 1372 955 1409 827 1409 c 0
EndSplineSet
EndChar

StartChar: D
Encoding: 68 68 24
Width: 1498
VWidth: 0
Flags: HW
PickledData: "(dp1
S'com.typemytype.robofont.layerData'
p2
(dp3
s."
LayerCount: 2
Fore
SplineSet
1380 743 m 0
 1380 248 1090 0 616 0 c 2
 182 0 l 1
 182 1488 l 1
 585 1488 l 2
 1060 1488 1380 1268 1380 743 c 0
1237 738 m 0
 1237 1204 983 1382 573 1382 c 2
 310 1382 l 1
 310 107 l 1
 602 107 l 2
 1011 107 1237 315 1237 738 c 0
EndSplineSet
EndChar

StartChar: Delta
Encoding: 916 916 26
Width: 1265
VWidth: 0
Flags: HW
LayerCount: 2
Fore
SplineSet
1038 155 m 1
 632 1306 l 1
 231 155 l 1
 1038 155 l 1
-10 0 m 1
 539 1496 l 1
 724 1496 l 1
 1275 0 l 1
 -10 0 l 1
EndSplineSet
EndChar

StartChar: E
Encoding: 69 69 27
Width: 1142
VWidth: 0
Flags: HW
PickledData: "(dp1
S'com.typemytype.robofont.layerData'
p2
(dp3
s."
LayerCount: 2
Fore
SplineSet
182 0 m 1
 182 1488 l 1
 1011 1488 l 1
 1006 1377 l 1
 310 1377 l 1
 310 822 l 1
 972 822 l 1
 972 713 l 1
 310 713 l 1
 310 111 l 1
 1028 111 l 1
 1017 0 l 1
 182 0 l 1
EndSplineSet
EndChar

StartChar: Eng
Encoding: 330 330 36
Width: 1420
VWidth: 0
Flags: HW
LayerCount: 2
Fore
SplineSet
847 -340 m 0
 809 -340 758 -337 594 -319 c 1
 570 -204 l 1
 752 -216 751 -218 780 -218 c 0
 1097 -218 1118 -137 1118 191 c 2
 1118 1042 l 2
 1118 1327 1039 1411 804 1411 c 0
 544 1411 384 1245 287 1111 c 1
 287 0 l 1
 153 0 l 1
 151 1518 l 1
 277 1518 l 1
 291 1284 l 1
 507 1527 684 1540 861 1540 c 0
 1110 1540 1251 1374 1251 1043 c 2
 1251 178 l 2
 1251 -123 1197 -340 847 -340 c 0
EndSplineSet
EndChar

StartChar: Epsilontonos
Encoding: 904 904 39
Width: 468
VWidth: 0
Flags: HW
LayerCount: 2
Fore
SplineSet
237 796 m 0
 326 796 370 730 370 664 c 0
 370 598 326 532 237 532 c 0
 149 532 104 598 104 664 c 0
 104 730 149 796 237 796 c 0
EndSplineSet
EndChar

StartChar: Etatonos
Encoding: 905 905 41
Width: 468
VWidth: 0
Flags: HW
LayerCount: 2
Fore
SplineSet
237 796 m 0
 326 796 370 730 370 664 c 0
 370 598 326 532 237 532 c 0
 149 532 104 598 104 664 c 0
 104 730 149 796 237 796 c 0
EndSplineSet
EndChar

StartChar: Eth
Encoding: 208 208 42
Width: 1521
VWidth: 0
Flags: HW
LayerCount: 2
Fore
SplineSet
290 834 m 1
 552 834 l 1
 552 728 l 1
 290 728 l 1
 290 121 l 1
 642 121 l 2
 1018 121 1247 319 1247 740 c 0
 1247 1256 948 1398 539 1398 c 2
 290 1398 l 1
 290 834 l 1
40 728 m 1
 40 834 l 1
 155 834 l 1
 155 1518 l 1
 518 1518 l 2
 1022 1518 1399 1344 1399 744 c 0
 1399 233 1087 0 623 0 c 2
 155 0 l 1
 155 728 l 1
 40 728 l 1
EndSplineSet
EndChar

StartChar: F
Encoding: 70 70 43
Width: 1025
VWidth: 0
Flags: HW
PickledData: "(dp1
S'com.typemytype.robofont.layerData'
p2
(dp3
s."
LayerCount: 2
Fore
SplineSet
311 0 m 1
 182 0 l 1
 182 1488 l 1
 982 1488 l 1
 976 1377 l 1
 311 1377 l 1
 311 789 l 1
 946 789 l 1
 946 686 l 1
 311 686 l 1
 311 0 l 1
EndSplineSet
EndChar

StartChar: G
Encoding: 71 71 44
Width: 1458
VWidth: 0
Flags: HW
PickledData: "(dp1
S'com.typemytype.robofont.layerData'
p2
(dp3
s."
LayerCount: 2
Fore
SplineSet
821 -23 m 0
 358 -23 118 315 118 740 c 0
 118 1186 381 1516 847 1516 c 0
 1021 1516 1168 1472 1291 1399 c 1
 1234 1296 l 1
 1128 1360 981 1409 848 1409 c 0
 447 1409 258 1108 258 742 c 0
 258 349 452 83 864 83 c 0
 985 83 1122 123 1210 158 c 1
 1210 634 l 1
 841 634 l 1
 849 745 l 1
 1329 745 l 1
 1329 89 l 1
 1162 3 1025 -23 821 -23 c 0
EndSplineSet
EndChar

StartChar: H
Encoding: 72 72 50
Width: 1474
VWidth: 0
Flags: HW
PickledData: "(dp1
S'com.typemytype.robofont.layerData'
p2
(dp3
s."
LayerCount: 2
Fore
SplineSet
1292 0 m 1
 1164 0 l 1
 1164 718 l 1
 310 718 l 1
 310 0 l 1
 182 0 l 1
 182 1488 l 1
 310 1488 l 1
 310 830 l 1
 1164 830 l 1
 1164 1488 l 1
 1292 1488 l 1
 1292 0 l 1
EndSplineSet
EndChar

StartChar: Hbar
Encoding: 294 294 51
Width: 1450
VWidth: 0
Flags: HW
LayerCount: 2
Fore
SplineSet
1162 721 m 1
 290 721 l 1
 290 0 l 1
 155 0 l 1
 155 1125 l 1
 62 1125 l 1
 62 1212 l 1
 155 1212 l 1
 155 1521 l 1
 290 1521 l 1
 290 1212 l 1
 1162 1212 l 1
 1162 1521 l 1
 1297 1521 l 1
 1297 1212 l 1
 1389 1212 l 1
 1389 1125 l 1
 1297 1125 l 1
 1297 0 l 1
 1162 0 l 1
 1162 721 l 1
290 1125 m 1
 290 845 l 1
 1162 845 l 1
 1162 1125 l 1
 290 1125 l 1
EndSplineSet
EndChar

StartChar: I
Encoding: 73 73 53
Width: 514
VWidth: 0
Flags: HW
PickledData: "(dp1
S'com.typemytype.robofont.layerData'
p2
(dp3
s."
LayerCount: 2
Fore
SplineSet
321 0 m 1
 193 0 l 1
 193 1488 l 1
 321 1488 l 1
 321 0 l 1
EndSplineSet
EndChar

StartChar: Iotatonos
Encoding: 906 906 65
Width: 468
VWidth: 0
Flags: HW
LayerCount: 2
Fore
SplineSet
237 796 m 0
 326 796 370 730 370 664 c 0
 370 598 326 532 237 532 c 0
 149 532 104 598 104 664 c 0
 104 730 149 796 237 796 c 0
EndSplineSet
EndChar

StartChar: J
Encoding: 74 74 67
Width: 512
VWidth: 0
Flags: HW
LayerCount: 2
Fore
SplineSet
234 216 m 2
 234 1514 l 1
 367 1514 l 1
 367 303 l 2
 367 7 366 -138 13 -138 c 1
 23 -138 10 -139 5 -141 c 1
 -20 -48 l 1
 -33 -45 53 -43 40 -43 c 1
 234 -43 234 78 234 216 c 2
5 -141 m 1
 6 -143 l 1
 2 -142 3 -142 5 -141 c 1
EndSplineSet
EndChar

StartChar: K
Encoding: 75 75 69
Width: 1208
VWidth: 0
Flags: HW
PickledData: "(dp1
S'com.typemytype.robofont.layerData'
p2
(dp3
s."
LayerCount: 2
Fore
SplineSet
1226 0 m 1
 1063 0 l 1
 456 739 l 1
 311 603 l 1
 311 0 l 1
 182 0 l 1
 182 1488 l 1
 311 1488 l 1
 311 719 l 1
 254 610 1065 1594 1006 1488 c 1
 1175 1488 l 1
 554 817 l 1
 1226 0 l 1
EndSplineSet
EndChar

StartChar: L
Encoding: 76 76 72
Width: 998
VWidth: 0
Flags: HW
PickledData: "(dp1
S'com.typemytype.robofont.layerData'
p2
(dp3
s."
LayerCount: 2
Fore
SplineSet
182 0 m 1
 182 1488 l 1
 311 1488 l 1
 311 113 l 1
 980 113 l 1
 974 0 l 1
 182 0 l 1
EndSplineSet
EndChar

StartChar: Lambda
Encoding: 923 923 74
Width: 1265
VWidth: 0
Flags: HW
LayerCount: 2
Fore
SplineSet
632 1306 m 1
 177 0 l 1
 -10 0 l 1
 539 1496 l 1
 724 1496 l 1
 1275 0 l 1
 1093 0 l 1
 632 1306 l 1
EndSplineSet
EndChar

StartChar: Lslash
Encoding: 321 321 78
Width: 936
VWidth: 0
Flags: HW
LayerCount: 2
Fore
SplineSet
9 545 m 1
 9 669 l 1
 156 744 l 1
 156 1518 l 1
 291 1518 l 1
 291 801 l 1
 653 998 l 1
 653 862 l 1
 291 672 l 1
 291 124 l 1
 966 124 l 1
 955 0 l 1
 156 0 l 1
 156 618 l 1
 9 545 l 1
EndSplineSet
EndChar

StartChar: M
Encoding: 77 77 79
Width: 1804
VWidth: 0
Flags: HW
PickledData: "(dp1
S'com.typemytype.robofont.layerData'
p2
(dp3
s."
LayerCount: 2
Fore
SplineSet
833 85 m 1
 339 1222 l 1
 300 1342 l 1
 307 996 l 1
 307 0 l 1
 182 0 l 1
 182 1488 l 1
 362 1488 l 1
 910 231 l 1
 1449 1488 l 1
 1622 1488 l 1
 1622 0 l 1
 1492 0 l 1
 1492 1001 l 1
 1499 1339 l 1
 1462 1219 l 1
 973 85 l 1
 833 85 l 1
EndSplineSet
EndChar

StartChar: N
Encoding: 78 78 81
Width: 1499
VWidth: 0
Flags: HW
PickledData: "(dp1
S'com.typemytype.robofont.layerData'
p2
(dp3
s."
LayerCount: 2
Fore
SplineSet
1317 0 m 1
 1165 0 l 1
 348 1253 l 1
 297 1326 l 1
 304 1129 305 1116 305 938 c 2
 305 0 l 1
 182 0 l 1
 182 1488 l 1
 331 1488 l 1
 1150 233 l 1
 1203 160 l 1
 1203 160 1196 468 1196 543 c 2
 1196 1488 l 1
 1317 1488 l 1
 1317 0 l 1
EndSplineSet
EndChar

StartChar: O
Encoding: 79 79 87
Width: 1627
VWidth: 0
Flags: HW
PickledData: "(dp1
S'com.typemytype.robofont.layerData'
p2
(dp3
s."
LayerCount: 2
Fore
SplineSet
1509 743 m 0
 1509 305 1270 -23 815 -23 c 0
 352 -23 118 296 118 744 c 0
 118 1208 364 1517 816 1517 c 0
 1259 1517 1509 1205 1509 743 c 0
258 745 m 0
 258 348 439 82 815 82 c 0
 1192 82 1367 349 1367 745 c 0
 1367 1161 1182 1410 816 1410 c 0
 449 1410 258 1163 258 745 c 0
EndSplineSet
EndChar

StartChar: OE
Encoding: 338 338 88
Width: 1890
VWidth: 0
Flags: HW
LayerCount: 2
Fore
SplineSet
1139 1329 m 1
 1061 1385 946 1433 817 1433 c 0
 484 1433 278 1188 267 798 c 1
 267 399 405 96 829 90 c 1
 944 90 1100 160 1139 167 c 1
 1139 1329 l 1
796 1547 m 0
 946 1547 1073 1498 1139 1432 c 1
 1139 1517 l 1
 1770 1517 l 1
 1754 1397 l 1
 1279 1397 l 1
 1279 833 l 1
 1715 833 l 1
 1715 712 l 1
 1279 712 l 1
 1279 121 l 1
 1792 121 l 1
 1778 -2 l 1
 1139 -2 l 1
 1139 80 l 1
 1116 43 935 -25 827 -25 c 0
 333 -25 110 299 110 793 c 1
 124 1229 400 1547 796 1547 c 0
EndSplineSet
EndChar

StartChar: Omegatonos
Encoding: 911 911 97
Width: 468
VWidth: 0
Flags: HW
LayerCount: 2
Fore
SplineSet
237 796 m 0
 326 796 370 730 370 664 c 0
 370 598 326 532 237 532 c 0
 149 532 104 598 104 664 c 0
 104 730 149 796 237 796 c 0
EndSplineSet
EndChar

StartChar: Omicrontonos
Encoding: 908 908 99
Width: 468
VWidth: 0
Flags: HW
LayerCount: 2
Fore
SplineSet
237 796 m 0
 326 796 370 730 370 664 c 0
 370 598 326 532 237 532 c 0
 149 532 104 598 104 664 c 0
 104 730 149 796 237 796 c 0
EndSplineSet
EndChar

StartChar: Oslash
Encoding: 216 216 100
Width: 1670
VWidth: 0
Flags: HW
LayerCount: 2
Fore
SplineSet
669 142 m 1
 719 129 773 123 834 123 c 0
 1222 123 1406 435 1406 816 c 0
 1406 1063 1322 1281 1153 1400 c 1
 669 142 l 1
1149 1793 m 1
 1291 1744 l 1
 1214 1546 l 1
 1443 1411 1561 1151 1561 803 c 0
 1561 338 1335 -27 835 -27 c 0
 752 -27 678 -18 610 0 c 1
 544 -168 l 1
 407 -125 l 1
 478 53 l 1
 227 185 108 470 108 803 c 0
 108 1304 357 1640 833 1640 c 0
 922 1640 1003 1628 1077 1607 c 1
 1149 1793 l 1
834 1492 m 0
 450 1492 259 1186 259 816 c 0
 259 549 350 314 537 201 c 1
 1020 1465 l 1
 964 1483 903 1492 834 1492 c 0
EndSplineSet
EndChar

StartChar: P
Encoding: 80 80 103
Width: 1167
VWidth: 0
Flags: HW
PickledData: "(dp1
S'com.typemytype.robofont.layerData'
p2
(dp3
s."
LayerCount: 2
Fore
SplineSet
611 795 m 0
 973 795 993 974 993 1136 c 0
 993 1323 850 1383 666 1383 c 2
 318 1383 l 1
 318 797 l 1
 326 798 542 795 611 795 c 0
318 0 m 1
 182 0 l 1
 182 1514 l 1
 661 1514 l 2
 921 1514 1136 1411 1136 1135 c 0
 1136 848 1018 671 572 671 c 0
 510 671 394 680 318 687 c 1
 318 0 l 1
EndSplineSet
EndChar

StartChar: Phi
Encoding: 934 934 104
Width: 1661
VWidth: 0
Flags: HW
LayerCount: 2
Fore
SplineSet
740 1358 m 1
 740 1496 l 1
 917 1496 l 1
 917 1358 l 1
 1327 1330 1560 1101 1560 772 c 0
 1560 449 1340 199 917 170 c 1
 917 0 l 1
 740 0 l 1
 740 170 l 1
 320 201 101 450 101 772 c 0
 101 1100 333 1329 740 1358 c 1
740 323 m 1
 740 1205 l 1
 441 1178 290 1012 290 772 c 0
 290 541 428 353 740 323 c 1
917 1205 m 1
 917 323 l 1
 1232 352 1371 540 1371 772 c 0
 1371 1010 1221 1179 917 1205 c 1
EndSplineSet
EndChar

StartChar: Pi
Encoding: 928 928 105
Width: 1465
VWidth: 0
Flags: HW
LayerCount: 2
Fore
SplineSet
1141 1344 m 1
 324 1344 l 1
 324 0 l 1
 147 0 l 1
 147 1496 l 1
 1318 1496 l 1
 1318 0 l 1
 1141 0 l 1
 1141 1344 l 1
EndSplineSet
EndChar

StartChar: Psi
Encoding: 936 936 106
Width: 468
VWidth: 0
Flags: HW
LayerCount: 2
Fore
SplineSet
237 796 m 0
 326 796 370 730 370 664 c 0
 370 598 326 532 237 532 c 0
 149 532 104 598 104 664 c 0
 104 730 149 796 237 796 c 0
EndSplineSet
EndChar

StartChar: Q
Encoding: 81 81 107
Width: 1612
VWidth: 0
Flags: HW
PickledData: "(dp1
S'com.typemytype.robofont.layerData'
p2
(dp3
S'back'
p4
(dp5
S'name'
p6
S'Q'
sS'lib'
p7
(dp8
sS'unicodes'
p9
(tsS'width'
p10
I1612
sS'contours'
p11
((dp12
S'points'
p13
((dp14
S'segmentType'
p15
S'curve'
p16
sS'x'
F807
sS'smooth'
p17
I01
sS'y'
F91
s(dp18
S'y'
F91
sS'x'
F438
sg17
I00
s(dp19
S'y'
F346
sS'x'
F262
sg17
I00
s(dp20
g15
S'curve'
p21
sS'x'
F262
sg17
I01
sS'y'
F747
s(dp22
S'y'
F1171
sS'x'
F262
sg17
I00
s(dp23
S'y'
F1403
sS'x'
F450
sg17
I00
s(dp24
g15
S'curve'
p25
sS'x'
F808
sg17
I01
sS'y'
F1403
s(dp26
S'y'
F1403
sS'x'
F1166
sg17
I00
s(dp27
S'y'
F1169
sS'x'
F1347
sg17
I00
s(dp28
g15
S'curve'
p29
sS'x'
F1347
sg17
I01
sS'y'
F747
s(dp30
S'y'
F346
sS'x'
F1347
sg17
I00
s(dp31
S'y'
F91
sS'x'
F1176
sg17
I00
stp32
s(dp33
g13
((dp34
g15
S'curve'
p35
sS'x'
F1253
sg17
I00
sS'y'
F-470
s(dp36
g15
S'line'
p37
sS'x'
F1359
sg17
I00
sS'y'
F-365
s(dp38
S'y'
F-245
sS'x'
F1240
sg17
I00
s(dp39
S'y'
F79
sS'x'
F1073
sg17
I00
s(dp40
g15
S'curve'
p41
sS'x'
F1095
sg17
I00
sS'y'
F28
s(dp42
S'y'
F138
sS'x'
F1361
sg17
I00
s(dp43
S'y'
F408
sS'x'
F1494
sg17
I00
s(dp44
g15
S'curve'
p45
sS'x'
F1494
sg17
I01
sS'y'
F745
s(dp46
S'y'
F1208
sS'x'
F1494
sg17
I00
s(dp47
S'y'
F1517
sS'x'
F1256
sg17
I00
s(dp48
g15
S'curve'
p49
sS'x'
F809
sg17
I01
sS'y'
F1517
s(dp50
S'y'
F1517
sS'x'
F352
sg17
I00
s(dp51
S'y'
F1212
sS'x'
F118
sg17
I00
s(dp52
g15
S'curve'
p53
sS'x'
F118
sg17
I01
sS'y'
F746
s(dp54
S'y'
F295
sS'x'
F118
sg17
I00
s(dp55
S'y'
F-23
sS'x'
F340
sg17
I00
s(dp56
g15
S'curve'
p57
sS'x'
F807
sg17
I01
sS'y'
F-23
s(dp58
S'y'
F-23
sS'x'
F857
sg17
I00
s(dp59
S'y'
F-19
sS'x'
F903
sg17
I00
s(dp60
g15
S'curve'
p61
sS'x'
F947
sg17
I00
sS'y'
F-12
s(dp62
S'y'
F-200
sS'x'
F1034
sg17
I00
s(dp63
S'y'
F-462
sS'x'
F1250
sg17
I00
stp64
stp65
sS'components'
p66
(tsS'anchors'
p67
(tsss."
LayerCount: 2
Fore
SplineSet
807 91 m 0
 1176 91 1347 346 1347 747 c 0
 1347 1169 1166 1403 808 1403 c 0
 450 1403 262 1171 262 747 c 0
 262 346 438 91 807 91 c 0
1253 -470 m 1
 1250 -462 1034 -200 947 -12 c 1
 903 -19 857 -23 807 -23 c 0
 340 -23 118 295 118 746 c 0
 118 1212 352 1517 809 1517 c 0
 1256 1517 1494 1208 1494 745 c 0
 1494 408 1362 128 1069 17 c 1
 1069 17 1232 -266 1351 -386 c 1
 1253 -470 l 1
EndSplineSet
EndChar

StartChar: R
Encoding: 82 82 108
Width: 1371
VWidth: 0
Flags: HW
PickledData: "(dp1
S'com.typemytype.robofont.layerData'
p2
(dp3
s."
LayerCount: 2
Fore
SplineSet
317 1390 m 1
 317 845 l 1
 481 843 543 842 708 842 c 0
 997 842 1080 946 1080 1131 c 0
 1080 1295 1004 1390 752 1390 c 2
 317 1390 l 1
1276 0 m 1
 1121 0 l 1
 903 518 l 2
 863 611 824 694 805 737 c 1
 742 730 317 740 317 740 c 1
 317 0 l 1
 182 0 l 1
 182 1514 l 1
 623 1514 l 2
 983 1514 1212 1471 1212 1133 c 0
 1212 957 1128 809 929 759 c 1
 929 759 991 634 1022 568 c 1
 1276 0 l 1
EndSplineSet
EndChar

StartChar: S
Encoding: 83 83 113
Width: 1247
VWidth: 0
Flags: HW
PickledData: "(dp1
S'com.typemytype.robofont.layerData'
p2
(dp3
S'back'
p4
(dp5
S'name'
p6
S'S'
sS'lib'
p7
(dp8
sS'unicodes'
p9
(tsS'width'
p10
I1247
sS'contours'
p11
((dp12
S'points'
p13
((dp14
S'segmentType'
p15
S'line'
p16
sS'x'
F155
sS'smooth'
p17
I00
sS'y'
F197
s(dp18
S'y'
F136
sS'x'
F283
sg17
I00
s(dp19
S'y'
F85
sS'x'
F460
sg17
I00
s(dp20
g15
S'curve'
p21
sS'x'
F668
sg17
I01
sS'y'
F85
s(dp22
S'y'
F85
sS'x'
F901
sg17
I00
s(dp23
S'y'
F200
sS'x'
F1021
sg17
I00
s(dp24
g15
S'curve'
p25
sS'x'
F1021
sg17
I01
sS'y'
F446
s(dp26
S'y'
F589
sS'x'
F1021
sg17
I00
s(dp27
S'y'
F687
sS'x'
F969
sg17
I00
s(dp28
g15
S'curve'
p29
sS'x'
F736
sg17
I01
sS'y'
F741
s(dp30
S'y'
F712
sS'x'
F771
sg17
I00
s(dp31
S'y'
F790
sS'x'
F457
sg17
I00
s(dp32
g15
S'curve'
p33
sS'x'
F497
sg17
I01
sS'y'
F746
s(dp34
S'y'
F789
sS'x'
F251
sg17
I00
s(dp35
S'y'
F904
sS'x'
F97
sg17
I00
s(dp36
g15
S'curve'
p37
sS'x'
F97
sg17
I01
sS'y'
F1130
s(dp38
S'y'
F1432
sS'x'
F97
sg17
I00
s(dp39
S'y'
F1547
sS'x'
F316
sg17
I00
s(dp40
g15
S'curve'
p41
sS'x'
F653
sg17
I01
sS'y'
F1547
s(dp42
S'y'
F1547
sS'x'
F838
sg17
I00
s(dp43
S'y'
F1500
sS'x'
F1006
sg17
I00
s(dp44
g15
S'curve'
p45
sS'x'
F1097
sg17
I00
sS'y'
F1441
s(dp46
g15
S'line'
p47
sS'x'
F1060
sg17
I00
sS'y'
F1340
s(dp48
S'y'
F1375
sS'x'
F998
sg17
I00
s(dp49
S'y'
F1439
sS'x'
F821
sg17
I00
s(dp50
g15
S'curve'
p51
sS'x'
F650
sg17
I01
sS'y'
F1439
s(dp52
S'y'
F1439
sS'x'
F375
sg17
I00
s(dp53
S'y'
F1348
sS'x'
F235
sg17
I00
s(dp54
g15
S'curve'
p55
sS'x'
F235
sg17
I01
sS'y'
F1138
s(dp56
S'y'
F1004
sS'x'
F235
sg17
I00
s(dp57
S'y'
F929
sS'x'
F324
sg17
I00
s(dp58
g15
S'curve'
p59
sS'x'
F493
sg17
I01
sS'y'
F893
s(dp60
S'y'
F904
sS'x'
F477
sg17
I00
s(dp61
S'y'
F816
sS'x'
F832
sg17
I00
s(dp62
g15
S'curve'
p63
sS'x'
F802
sg17
I01
sS'y'
F834
s(dp64
S'y'
F803
sS'x'
F1019
sg17
I00
s(dp65
S'y'
F691
sS'x'
F1158
sg17
I00
s(dp66
g15
S'curve'
p67
sS'x'
F1158
sg17
I01
sS'y'
F443
s(dp68
S'y'
F117
sS'x'
F1158
sg17
I00
s(dp69
S'y'
F-24
sS'x'
F956
sg17
I00
s(dp70
g15
S'curve'
p71
sS'x'
F657
sg17
I01
sS'y'
F-24
s(dp72
S'y'
F-24
sS'x'
F374
sg17
I00
s(dp73
S'y'
F59
sS'x'
F178
sg17
I00
s(dp74
g15
S'curve'
p75
sS'x'
F99
sg17
I00
sS'y'
F107
stp76
stp77
sS'components'
p78
(tsS'anchors'
p79
((dp80
S'y'
F1491
sS'x'
F624
sg6
S'top'
p81
s(dp82
S'y'
F0
sS'x'
F624
sg6
S'bottom'
p83
stp84
sss."
LayerCount: 2
Fore
SplineSet
155 197 m 1
 283 136 460 85 668 85 c 0
 897 85 1024 209.499984741 1024 431 c 0
 1024 582.003311222 980.37890625 673.307617188 738 723 c 2
 499 772 l 2
 246.469726562 823.774414062 97 924 97 1151 c 0
 97 1437 324 1547 653 1547 c 0
 838 1547 1006 1500 1097 1441 c 1
 1060 1340 l 1
 998 1375 821 1439 650 1439 c 0
 375 1439 228 1348 228 1138 c 0
 228 1004 324 931 493 895 c 2
 760 838 l 2
 1012.19364522 784.161230896 1158.17067879 687.83030805 1158.17067879 428.334831019 c 0
 1158.17067879 135.187135157 951.13197615 -24 657 -24 c 0
 374 -24 178 59 99 107 c 1
 155 197 l 1
EndSplineSet
EndChar

StartChar: T
Encoding: 84 84 120
Width: 1082
VWidth: 0
Flags: HW
PickledData: "(dp1
S'com.typemytype.robofont.layerData'
p2
(dp3
s."
LayerCount: 2
Fore
SplineSet
606 0 m 1
 476 0 l 1
 476 1378 l 1
 8 1378 l 1
 8 1488 l 1
 1074 1488 l 1
 1074 1378 l 1
 606 1378 l 1
 606 0 l 1
EndSplineSet
EndChar

StartChar: Theta
Encoding: 920 920 124
Width: 468
VWidth: 0
Flags: HW
LayerCount: 2
Fore
SplineSet
237 796 m 0
 326 796 370 730 370 664 c 0
 370 598 326 532 237 532 c 0
 149 532 104 598 104 664 c 0
 104 730 149 796 237 796 c 0
EndSplineSet
EndChar

StartChar: Thorn
Encoding: 222 222 125
Width: 1275
VWidth: 0
Flags: HW
LayerCount: 2
Fore
SplineSet
289 466 m 1
 695 466 l 2
 965 466 1036 606 1036 775 c 0
 1036 980 946 1078 646 1078 c 2
 289 1078 l 1
 289 466 l 1
133 -7 m 1
 133 1524 l 1
 289 1524 l 1
 289 1209 l 1
 630 1209 l 2
 1001 1209 1179 1107 1179 795 c 0
 1179 545 1078 345 717 345 c 0
 706 345 289 356 289 356 c 1
 289 -7 l 1
 133 -7 l 1
EndSplineSet
EndChar

StartChar: U
Encoding: 85 85 126
Width: 1425
VWidth: 0
Flags: HW
PickledData: "(dp1
S'com.typemytype.robofont.layerData'
p2
(dp3
s."
LayerCount: 2
Fore
SplineSet
1246 1488 m 1
 1246 515 l 2
 1246 196 1090 -23 695 -23 c 0
 301 -23 152 197 152 517 c 2
 152 1488 l 1
 281 1488 l 1
 281 497 l 2
 281 211 421 79 702 79 c 0
 975 79 1118 213 1118 498 c 2
 1118 1488 l 1
 1246 1488 l 1
EndSplineSet
EndChar

StartChar: Upsilontonos
Encoding: 910 910 138
Width: 468
VWidth: 0
Flags: HW
LayerCount: 2
Fore
SplineSet
237 796 m 0
 326 796 370 730 370 664 c 0
 370 598 326 532 237 532 c 0
 149 532 104 598 104 664 c 0
 104 730 149 796 237 796 c 0
EndSplineSet
EndChar

StartChar: V
Encoding: 86 86 141
Width: 1206
VWidth: 0
Flags: HW
PickledData: "(dp1
S'com.typemytype.robofont.layerData'
p2
(dp3
s."
LayerCount: 2
Fore
SplineSet
1067 1488 m 1
 1211 1488 l 1
 668 0 l 1
 531 0 l 1
 -5 1488 l 1
 137 1488 l 1
 475 529 l 1
 530 353 555 308 599 137 c 1
 614 218 649 293 726 535 c 0
 867 984 931 1063 1067 1488 c 1
EndSplineSet
EndChar

StartChar: W
Encoding: 87 87 142
Width: 1995
VWidth: 0
Flags: HW
PickledData: "(dp1
S'com.typemytype.robofont.layerData'
p2
(dp3
s."
LayerCount: 2
Fore
SplineSet
1532 0 m 1
 1389 0 l 1
 1006 1321 l 1
 606 0 l 1
 464 0 l 1
 2 1488 l 1
 143 1488 l 1
 539 142 l 1
 919 1448 l 1
 1087 1448 l 1
 1458 143 l 1
 1853 1488 l 1
 1993 1488 l 1
 1532 0 l 1
EndSplineSet
EndChar

StartChar: X
Encoding: 88 88 147
Width: 1196
VWidth: 0
Flags: HW
PickledData: "(dp1
S'com.typemytype.robofont.layerData'
p2
(dp3
s."
LayerCount: 2
Fore
SplineSet
1178 0 m 1
 1032 0 l 1
 600 721 l 1
 156 0 l 1
 18 0 l 1
 521 786 l 1
 49 1488 l 1
 202 1488 l 1
 603 866 l 1
 1021 1488 l 1
 1158 1488 l 1
 686 794 l 1
 1178 0 l 1
EndSplineSet
EndChar

StartChar: Xi
Encoding: 926 926 148
Width: 468
VWidth: 0
Flags: HW
LayerCount: 2
Fore
SplineSet
237 796 m 0
 326 796 370 730 370 664 c 0
 370 598 326 532 237 532 c 0
 149 532 104 598 104 664 c 0
 104 730 149 796 237 796 c 0
EndSplineSet
EndChar

StartChar: Y
Encoding: 89 89 149
Width: 1166
VWidth: 0
Flags: HW
PickledData: "(dp1
S'com.typemytype.robofont.layerData'
p2
(dp3
s."
LayerCount: 2
Fore
SplineSet
575 703 m 1
 1020 1488 l 1
 1161 1488 l 1
 632 593 l 1
 632 0 l 1
 501 0 l 1
 501 589 l 1
 5 1488 l 1
 144 1488 l 1
 575 703 l 1
EndSplineSet
EndChar

StartChar: Z
Encoding: 90 90 154
Width: 1173
VWidth: 0
Flags: HW
LayerCount: 2
Fore
SplineSet
97 0 m 1
 97 111 l 1
 923 1376 l 1
 127 1376 l 1
 127 1488 l 1
 1091 1488 l 1
 1091 1384 l 1
 259 113 l 1
 1099 113 l 1
 1091 0 l 1
 97 0 l 1
EndSplineSet
EndChar

StartChar: a
Encoding: 97 97 159
Width: 1077
VWidth: 0
Flags: HW
PickledData: "(dp1
S'com.typemytype.robofont.layerData'
p2
(dp3
S'back'
p4
(dp5
S'name'
p6
S'a'
sS'lib'
p7
(dp8
sS'unicodes'
p9
(tsS'width'
p10
I1077
sS'contours'
p11
((dp12
S'points'
p13
((dp14
S'segmentType'
p15
S'curve'
p16
sS'x'
F444
sS'smooth'
p17
I01
sS'y'
F77
s(dp18
S'y'
F77
sS'x'
F610
sg17
I00
s(dp19
S'y'
F179
sS'x'
F767
sg17
I00
s(dp20
g15
S'curve'
p21
sS'x'
F802
sg17
I00
sS'y'
F380
s(dp22
g15
S'line'
p23
sS'x'
F802
sg17
I00
sS'y'
F547
s(dp24
S'y'
F544
sS'x'
F766
sg17
I00
s(dp25
S'y'
F536
sS'x'
F696
sg17
I00
s(dp26
g15
S'curve'
p27
sS'x'
F657
sg17
I00
sS'y'
F535
s(dp28
S'y'
F505
sS'x'
F329
sg17
I00
s(dp29
S'y'
F439
sS'x'
F232
sg17
I00
s(dp30
g15
S'curve'
p31
sS'x'
F232
sg17
I01
sS'y'
F277
s(dp32
S'y'
F138
sS'x'
F232
sg17
I00
s(dp33
S'y'
F77
sS'x'
F318
sg17
I00
stp34
s(dp35
g13
((dp36
g15
S'line'
p37
sS'x'
F825
sg17
I00
sS'y'
F0
s(dp38
S'y'
F39
sS'x'
F817
sg17
I00
s(dp39
S'y'
F102
sS'x'
F809
sg17
I00
s(dp40
g15
S'curve'
p41
sS'x'
F803
sg17
I00
sS'y'
F141
s(dp42
S'y'
F1
sS'x'
F669
sg17
I00
s(dp43
S'y'
F-24
sS'x'
F575
sg17
I00
s(dp44
g15
S'curve'
p45
sS'x'
F440
sg17
I01
sS'y'
F-24
s(dp46
S'y'
F-24
sS'x'
F239
sg17
I00
s(dp47
S'y'
F79
sS'x'
F99
sg17
I00
s(dp48
g15
S'curve'
p49
sS'x'
F99
sg17
I01
sS'y'
F277
s(dp50
S'y'
F512
sS'x'
F99
sg17
I00
s(dp51
S'y'
F599
sS'x'
F310
sg17
I00
s(dp52
g15
S'curve'
p53
sS'x'
F615
sg17
I00
sS'y'
F622
s(dp54
S'y'
F626
sS'x'
F679
sg17
I00
s(dp55
S'y'
F630
sS'x'
F743
sg17
I00
s(dp56
g15
S'curve'
p57
sS'x'
F805
sg17
I00
sS'y'
F635
s(dp58
g15
S'line'
p59
sS'x'
F805
sg17
I01
sS'y'
F757
s(dp60
S'y'
F921
sS'x'
F805
sg17
I00
s(dp61
S'y'
F1010
sS'x'
F736
sg17
I00
s(dp62
g15
S'curve'
p63
sS'x'
F563
sg17
I01
sS'y'
F1010
s(dp64
S'y'
F1010
sS'x'
F455
sg17
I00
s(dp65
S'y'
F983
sS'x'
F340
sg17
I00
s(dp66
g15
S'curve'
p67
sS'x'
F238
sg17
I00
sS'y'
F927
s(dp68
S'y'
F958
sS'x'
F226
sg17
I00
s(dp69
S'y'
F990
sS'x'
F209
sg17
I00
s(dp70
g15
S'curve'
p71
sS'x'
F199
sg17
I00
sS'y'
F1022
s(dp72
S'y'
F1075
sS'x'
F280
sg17
I00
s(dp73
S'y'
F1116
sS'x'
F427
sg17
I00
s(dp74
g15
S'curve'
p75
sS'x'
F557
sg17
I01
sS'y'
F1116
s(dp76
S'y'
F1116
sS'x'
F813
sg17
I00
s(dp77
S'y'
F1025
sS'x'
F926
sg17
I00
s(dp78
g15
S'curve'
p79
sS'x'
F926
sg17
I01
sS'y'
F732
s(dp80
g15
S'line'
p81
sS'x'
F926
sg17
I00
sS'y'
F0
stp82
stp83
sS'components'
p84
(tsS'anchors'
p85
((dp86
S'y'
F10
sS'x'
F969
sg6
S'ogonek'
p87
s(dp88
S'y'
F1097
sS'x'
F539
sg6
S'top'
p89
stp90
sss."
LayerCount: 2
Fore
SplineSet
829 0 m 1
 821 39 811 122 805 161 c 1
 708 22 575 -24 440 -24 c 0
 239 -24 99 79 99 277 c 0
 99 512 310 599 615 622 c 0
 679 626 743 630 805 635 c 1
 805 757 l 2
 805 921 736 1010 563 1010 c 0
 455 1010 340 983 238 927 c 1
 226 958 209 990 199 1022 c 1
 280 1075 427 1116 557 1116 c 0
 813 1116 926 1025 926 732 c 2
 926 0 l 1
 829 0 l 1
444 75 m 0
 610 75 759 177 802 360 c 1
 802 547 l 1
 766 544 696 536 657 535 c 1
 329 505 223 437 223 275 c 0
 223 136 318 75 444 75 c 0
EndSplineSet
EndChar

StartChar: acute
Encoding: 180 180 163
Width: 648
VWidth: 0
Flags: HW
LayerCount: 2
Fore
SplineSet
474 1678 m 1
 194 1287 l 1
 115 1287 l 1
 304 1678 l 1
 474 1678 l 1
EndSplineSet
EndChar

StartChar: ae
Encoding: 230 230 165
Width: 1672
VWidth: 0
Flags: HW
LayerCount: 2
Fore
SplineSet
863 596 m 1
 1414 618 l 1
 1411 924 1328 1010 1181 1010 c 0
 942 1010 871 786 863 596 c 1
401 89 m 0
 515 89 680 146 807 165 c 1
 746 287 725 379 717 515 c 1
 688 513 692 519 666 516 c 1
 289 491 222 408 222 282 c 0
 222 127 304 89 401 89 c 0
401 -28 m 0
 242 -28 84 15 84 289 c 0
 84 567 380 602 671 607 c 1
 724 607 l 1
 724 803 l 2
 724 938 670 997 532 994 c 1
 391 994 256 966 161 908 c 1
 131 1019 l 1
 204 1066 383 1120 523 1117 c 1
 676 1116 806 1054 832 914 c 1
 906 1065 1046 1117 1184 1117 c 0
 1449 1117 1544 918 1544 723 c 0
 1544 603 1532 543 1344 532 c 1
 1359 534 894 513 855 514 c 1
 874 266 951 86 1176 87 c 0
 1305 87 1437 160 1516 216 c 1
 1559 122 l 1
 1481 47 1341 -27 1168 -27 c 0
 1043 -27 945 13 865 95 c 1
 735 30 540 -28 401 -28 c 0
1414 618 m 1
 1415 618 l 2
 1415 618 1414 624 1414 618 c 1
EndSplineSet
EndChar

StartChar: afii10018
Encoding: 1041 1041 168
Width: 1139
VWidth: 0
Flags: HW
LayerCount: 2
Fore
SplineSet
905 427 m 0
 905 615 814 750 618 750 c 2
 290 750 l 1
 290 124 l 1
 618 124 l 2
 808 124 905 239 905 427 c 0
155 1521 m 1
 992 1521 l 1
 992 1398 l 1
 290 1398 l 1
 290 874 l 1
 613 874 l 2
 879 874 1050 741 1050 424 c 0
 1050 146 895 0 624 0 c 2
 155 0 l 1
 155 1521 l 1
EndSplineSet
EndChar

StartChar: afii10020
Encoding: 1043 1043 169
Width: 804
VWidth: 0
Flags: HW
LayerCount: 2
Fore
SplineSet
982 1398 m 1
 289 1398 l 1
 289 0 l 1
 153 0 l 1
 153 1521 l 1
 994 1521 l 1
 982 1398 l 1
EndSplineSet
EndChar

StartChar: afii10025
Encoding: 1047 1047 171
Width: 1101
VWidth: 0
Flags: HW
LayerCount: 2
Fore
SplineSet
491 698 m 2
 406 698 l 1
 406 827 l 1
 503 827 l 2
 736 827 815 1185 822 1153 c 1
 807 1352 671 1436 525 1436 c 0
 411 1436 246 1383 152 1334 c 1
 99 1437 l 1
 208 1512 363 1546 537 1546 c 0
 864 1546 964 1279 964 1158 c 0
 964 996 841 812 702 781 c 1
 845 765 1000 606 1000 395 c 0
 1000 148 828 -25 494 -25 c 0
 297 -25 165 34 64 86 c 1
 74 109 123 229 113 201 c 1
 197 136 343 88 488 88 c 0
 649 88 851 157 851 390 c 0
 851 539 779 698 491 698 c 2
64 86 m 0
 62 81 62 81 64 86 c 1
 64 86 l 0
EndSplineSet
EndChar

StartChar: afii10026
Encoding: 1048 1048 172
Width: 1496
VWidth: 0
Flags: HW
LayerCount: 2
Fore
SplineSet
155 0 m 1
 155 1523 l 1
 280 1523 l 1
 280 157 l 1
 630 753 761 909 1119 1498 c 0
 1136 1527 1148 1493 1166 1523 c 1
 1338 1523 l 1
 1338 0 l 1
 1216 0 l 1
 1216 1407 l 1
 337 0 l 1
 155 0 l 1
EndSplineSet
EndChar

StartChar: afii10033
Encoding: 1055 1055 177
Width: 1466
VWidth: 0
Flags: HW
LayerCount: 2
Fore
SplineSet
1173 1395 m 1
 290 1395 l 1
 290 0 l 1
 155 0 l 1
 155 1521 l 1
 1309 1521 l 1
 1309 0 l 1
 1173 0 l 1
 1173 1395 l 1
EndSplineSet
EndChar

StartChar: afii10038
Encoding: 1060 1060 180
Width: 1688
VWidth: 0
Flags: HW
LayerCount: 2
Fore
SplineSet
892 1264 m 1
 892 228 l 1
 1262 275 1421 449 1421 742 c 0
 1421 1040 1262 1216 892 1264 c 1
773 1261 m 1
 423 1208 266 1039 266 742 c 0
 266 449 422 282 773 229 c 1
 773 1261 l 1
892 1521 m 1
 892 1387 l 1
 1327 1343 1576 1139 1576 739 c 0
 1576 345 1327 146 892 103 c 1
 892 0 l 1
 772 0 l 1
 773 106 l 1
 330 162 110 377 110 739 c 0
 110 1107 330 1328 773 1384 c 1
 772 1521 l 1
 892 1521 l 1
EndSplineSet
EndChar

StartChar: afii10040
Encoding: 1062 1062 182
Width: 1463
VWidth: 0
Flags: HW
LayerCount: 2
Fore
SplineSet
1159 128 m 1
 1159 1521 l 1
 1295 1521 l 1
 1295 188 l 1
 1397 188 l 1
 1397 -215 l 1
 1250 -215 l 1
 1250 0 l 1
 155 0 l 1
 155 1521 l 1
 290 1521 l 1
 290 128 l 1
 1159 128 l 1
EndSplineSet
EndChar

StartChar: afii10041
Encoding: 1063 1063 183
Width: 977
VWidth: 0
Flags: HW
LayerCount: 2
Fore
SplineSet
843 912 m 2
 843 1524 l 1
 990 1524 l 1
 990 -7 l 1
 843 -7 l 1
 843 735 l 1
 736 558 611 473 425 473 c 0
 218 473 99 672 99 870 c 2
 99 1524 l 1
 254 1524 l 1
 254 1016 l 2
 254 754 332 611 492 611 c 0
 686 611 843 812 843 912 c 2
EndSplineSet
EndChar

StartChar: afii10042
Encoding: 1064 1064 184
Width: 1597
VWidth: 0
Flags: HW
LayerCount: 2
Fore
SplineSet
290 128 m 1
 720 128 l 1
 720 1521 l 1
 855 1521 l 1
 855 128 l 1
 1304 128 l 1
 1304 1521 l 1
 1439 1521 l 1
 1439 0 l 1
 155 0 l 1
 155 1521 l 1
 290 1521 l 1
 290 128 l 1
EndSplineSet
EndChar

StartChar: afii10043
Encoding: 1065 1065 185
Width: 1662
VWidth: 0
Flags: HW
LayerCount: 2
Fore
SplineSet
1390 -215 m 1
 1391 0 l 1
 155 0 l 1
 155 1521 l 1
 290 1521 l 1
 290 128 l 1
 721 128 l 1
 721 1521 l 1
 857 1521 l 1
 857 128 l 1
 1305 128 l 1
 1305 1521 l 1
 1441 1521 l 1
 1441 188 l 1
 1540 188 l 1
 1540 -215 l 1
 1390 -215 l 1
EndSplineSet
EndChar

StartChar: afii10044
Encoding: 1066 1066 186
Width: 1368
VWidth: 0
Flags: HW
LayerCount: 2
Fore
SplineSet
1151 402 m 0
 1151 569 1061 673 789 673 c 2
 584 673 l 1
 584 118 l 1
 785 118 l 2
 1047 118 1151 216 1151 402 c 0
435 -7 m 1
 435 1400 l 1
 31 1400 l 1
 31 1524 l 1
 584 1524 l 1
 584 794 l 1
 768 794 l 2
 1126 794 1292 660 1292 391 c 0
 1292 122 1093 -7 763 -7 c 2
 435 -7 l 1
EndSplineSet
EndChar

StartChar: afii10046
Encoding: 1068 1068 187
Width: 1077
VWidth: 0
Flags: HW
LayerCount: 2
Fore
SplineSet
285 673 m 1
 285 117 l 1
 396 117 l 2
 668 117 791 216 791 402 c 0
 791 579 673 673 387 673 c 2
 285 673 l 1
285 1524 m 1
 285 794 l 1
 368 794 l 2
 713 794 932 660 932 409 c 0
 932 171 766 -7 376 -7 c 2
 133 -7 l 1
 133 1524 l 1
 285 1524 l 1
EndSplineSet
EndChar

StartChar: afii10047
Encoding: 1069 1069 188
Width: 1293
VWidth: 0
Flags: HW
LayerCount: 2
Fore
SplineSet
496 -25 m 0
 283 -25 140 30 58 112 c 1
 114 208 l 1
 185 149 328 90 492 90 c 0
 844 90 1010 377 1035 675 c 1
 339 675 l 1
 339 798 l 1
 1040 798 l 1
 1034 1116 897 1433 477 1433 c 0
 317 1433 182 1371 113 1314 c 1
 66 1423 l 1
 149 1508 289 1548 503 1548 c 0
 996 1548 1196 1173 1196 769 c 0
 1196 333 983 -25 496 -25 c 0
EndSplineSet
EndChar

StartChar: afii10048
Encoding: 1070 1070 189
Width: 2209
VWidth: 0
Flags: HW
LayerCount: 2
Fore
SplineSet
1265 1433 m 0
 946 1433 785 1100 785 751 c 0
 785 263 955 90 1277 90 c 0
 1597 90 1763 399 1763 754 c 0
 1763 1087 1598 1433 1265 1433 c 0
1274 -25 m 0
 883 -25 655 304 628 706 c 1
 285 706 l 1
 285 -7 l 1
 133 -7 l 1
 133 1522 l 1
 285 1522 l 1
 285 828 l 1
 630 828 l 1
 657 1257 877 1548 1262 1548 c 0
 1676 1548 1925 1211 1925 749 c 0
 1925 327 1690 -25 1274 -25 c 0
EndSplineSet
EndChar

StartChar: afii10049
Encoding: 1071 1071 190
Width: 1299
VWidth: 0
Flags: HW
LayerCount: 2
Fore
SplineSet
632 784 m 2
 1008 784 l 1
 1008 1397 l 1
 634 1397 l 2
 355 1397 245 1287 245 1093 c 0
 245 918 320 784 632 784 c 2
1008 0 m 1
 1008 659 l 1
 833 659 l 2
 643 659 588 669 540 674 c 1
 540 674 412 393 425 432 c 1
 219 0 l 1
 55 0 l 1
 115 144 180 238 287 476 c 1
 356 618 412 731 390 696 c 1
 220 761 111 906 111 1093 c 0
 111 1359 306 1521 684 1521 c 2
 1143 1521 l 1
 1143 0 l 1
 1008 0 l 1
EndSplineSet
EndChar

StartChar: afii10053
Encoding: 1028 1028 191
Width: 1293
VWidth: 0
Flags: HW
LayerCount: 2
Fore
SplineSet
220 675 m 1
 246 377 411 90 762 90 c 0
 927 90 1070 149 1141 208 c 1
 1197 112 l 1
 1114 30 972 -25 758 -25 c 0
 271 -25 59 333 59 769 c 0
 59 1173 263 1548 764 1548 c 0
 973 1548 1109 1508 1189 1423 c 1
 1142 1314 l 1
 1073 1371 938 1433 778 1433 c 0
 358 1433 221 1116 215 798 c 1
 916 798 l 1
 916 675 l 1
 220 675 l 1
EndSplineSet
EndChar

StartChar: afii10058
Encoding: 1033 1033 195
Width: 1801
VWidth: 0
Flags: HW
LayerCount: 2
Fore
SplineSet
1258 744 m 2
 962 744 l 1
 962 116 l 1
 1258 116 l 2
 1404 116 1518 235 1518 422 c 0
 1518 610 1411 744 1258 744 c 2
971 1524 m 1
 971 866 l 1
 1267 866 l 2
 1522 866 1679 735 1679 421 c 0
 1679 144 1525 -3 1265 -3 c 2
 810 -3 l 1
 825 1400 l 1
 409 1400 l 1
 402 429 l 1
 402 128 394 -30 52 -30 c 2
 36 -30 l 1
 36 104 l 1
 69 103 l 1
 259 101 262 235 262 379 c 2
 263 1524 l 1
 971 1524 l 1
EndSplineSet
EndChar

StartChar: afii10066
Encoding: 1073 1073 199
Width: 981
VWidth: 0
Flags: HW
LayerCount: 2
Fore
SplineSet
119 1098 m 1
 814 1098 l 1
 814 989 l 1
 248 989 l 1
 248 719 l 1
 539 719 l 2
 832 719 926 521 926 372 c 0
 926 214 819 0 533 0 c 2
 119 0 l 1
 119 1098 l 1
569 613 m 2
 247 613 l 1
 247 101 l 1
 567 101 l 2
 712 101 795 270 795 375 c 0
 795 486 710 613 569 613 c 2
EndSplineSet
EndChar

StartChar: afii10067
Encoding: 1074 1074 200
Width: 996
VWidth: 0
Flags: HW
LayerCount: 2
Fore
SplineSet
247 631 m 1
 543 631 l 2
 692 631 764 723 764 808 c 0
 764 915 691 990 543 990 c 2
 247 990 l 1
 247 631 l 1
539 515 m 2
 247 515 l 1
 247 101 l 1
 539 101 l 2
 704 101 798 185 798 323 c 1
 792 414 704 515 539 515 c 2
930 314 m 1
 930 179 822 0 530 0 c 2
 119 0 l 1
 119 1098 l 1
 539 1098 l 2
 808 1098 894 928 894 814 c 0
 894 731 858 635 757 575 c 1
 875 508 923 402 930 314 c 1
EndSplineSet
EndChar

StartChar: afii10068
Encoding: 1075 1075 201
Width: 633
VWidth: 0
Flags: HW
LayerCount: 2
Fore
SplineSet
631 992 m 1
 247 992 l 1
 247 0 l 1
 119 0 l 1
 119 1098 l 1
 631 1098 l 1
 631 992 l 1
EndSplineSet
EndChar

StartChar: afii10069
Encoding: 1076 1076 202
Width: 1054
VWidth: 0
Flags: HW
LayerCount: 2
Fore
SplineSet
242 98 m 1
 767 98 l 1
 767 993 l 1
 359 993 l 1
 359 1019 344 586 344 586 c 1
 342 469 307 191 242 98 c 1
-3 -221 m 1
 -3 101 l 1
 99 101 l 1
 188 189 194 380 204 435 c 1
 247 1098 l 1
 895 1098 l 1
 895 98 l 1
 967 98 l 1
 967 -221 l 1
 830 -221 l 1
 838 0 l 1
 120 0 l 1
 124 -221 l 1
 -3 -221 l 1
EndSplineSet
EndChar

StartChar: afii10072
Encoding: 1078 1078 205
Width: 1475
VWidth: 0
Flags: HW
LayerCount: 2
Fore
SplineSet
671 575 m 1
 671 1098 l 1
 803 1098 l 1
 803 575 l 1
 1301 1098 l 1
 1454 1098 l 1
 927 568 l 1
 1460 0 l 1
 1297 0 l 1
 803 529 l 1
 803 0 l 1
 671 0 l 1
 671 529 l 1
 176 0 l 1
 13 0 l 1
 547 568 l 1
 19 1098 l 1
 172 1098 l 1
 671 575 l 1
EndSplineSet
EndChar

StartChar: afii10073
Encoding: 1079 1079 206
Width: 936
VWidth: 0
Flags: HW
LayerCount: 2
Fore
SplineSet
401 -27 m 0
 294 -27 139 -2 67 86 c 1
 95 156 106 96 131 166 c 1
 195 105 308 78 415 78 c 0
 603 78 704 188 704 311 c 0
 704 411 632 529 462 529 c 2
 281 529 l 1
 281 630 l 1
 462 630 l 2
 612 630 669 744 669 829 c 0
 669 937 595 1035 408 1035 c 0
 308 1035 171 973 130 923 c 1
 130 923 90 963 70 1015 c 1
 148 1111 290 1144 413 1144 c 0
 731 1144 803 956 803 829 c 0
 803 743 784 647 633 580 c 1
 802 534 834 419 841 315 c 1
 841 167 745 -27 401 -27 c 0
EndSplineSet
EndChar

StartChar: afii10074
Encoding: 1080 1080 207
Width: 1087
VWidth: 0
Flags: HW
LayerCount: 2
Fore
SplineSet
966 0 m 1
 829 0 l 1
 829 813 l 1
 247 0 l 1
 119 0 l 1
 119 1098 l 1
 254 1098 l 1
 254 194 l 1
 829 1002 l 1
 829 1098 l 1
 966 1098 l 1
 966 0 l 1
EndSplineSet
EndChar

StartChar: afii10076
Encoding: 1082 1082 209
Width: 938
VWidth: 0
Flags: HW
LayerCount: 2
Fore
SplineSet
247 574 m 1
 247 574 429 784 405 747 c 1
 619 1012 658 1111 830 1111 c 0
 840 1111 837 1112 885 1101 c 1
 885 986 l 1
 849 992 847 991 828 991 c 0
 717 991 616 781 408 557 c 1
 428 587 365 543 365 543 c 1
 922 0 l 1
 742 0 l 1
 247 499 l 1
 247 0 l 1
 119 0 l 1
 119 1098 l 1
 247 1098 l 1
 247 574 l 1
EndSplineSet
EndChar

StartChar: afii10077
Encoding: 1083 1083 210
Width: 1147
VWidth: 0
Flags: HW
LayerCount: 2
Fore
SplineSet
214 1098 m 1
 1027 1098 l 1
 1027 0 l 1
 899 0 l 1
 899 994 l 1
 342 994 l 1
 342 440 l 2
 342 87 400 -29 81 -23 c 1
 45 -23 l 1
 32 97 l 1
 85 94 l 1
 218 85 214 156 214 406 c 2
 214 1098 l 1
EndSplineSet
EndChar

StartChar: afii10078
Encoding: 1084 1084 211
Width: 1124
VWidth: 0
Flags: HW
LayerCount: 2
Fore
SplineSet
621 410 m 1
 515 410 l 1
 253 871 l 1
 253 0 l 1
 117 0 l 1
 117 1098 l 1
 227 1098 l 1
 559 550 l 1
 894 1098 l 1
 1003 1098 l 1
 1003 0 l 1
 865 0 l 1
 865 871 l 1
 621 410 l 1
EndSplineSet
EndChar

StartChar: afii10079
Encoding: 1085 1085 212
Width: 1082
VWidth: 0
Flags: HW
LayerCount: 2
Fore
SplineSet
119 1098 m 1
 247 1098 l 1
 247 630 l 1
 832 630 l 1
 832 1098 l 1
 961 1098 l 1
 961 0 l 1
 832 0 l 1
 832 533 l 1
 247 533 l 1
 247 0 l 1
 119 0 l 1
 119 1098 l 1
EndSplineSet
EndChar

StartChar: afii10081
Encoding: 1087 1087 214
Width: 1189
VWidth: 0
Flags: HW
LayerCount: 2
Fore
SplineSet
168 1098 m 1
 1014 1098 l 1
 1014 0 l 1
 886 0 l 1
 886 992 l 1
 297 992 l 1
 297 0 l 1
 168 0 l 1
 168 1098 l 1
EndSplineSet
EndChar

StartChar: afii10084
Encoding: 1090 1090 217
Width: 824
VWidth: 0
Flags: HW
LayerCount: 2
Fore
SplineSet
58 1098 m 1
 767 1098 l 1
 767 980 l 1
 481 980 l 1
 481 0 l 1
 352 0 l 1
 352 980 l 1
 58 980 l 1
 58 1098 l 1
EndSplineSet
EndChar

StartChar: afii10085
Encoding: 1091 1091 218
Width: 1088
VWidth: 0
Flags: HW
LayerCount: 2
Fore
SplineSet
546 118 m 1
 870 1098 l 1
 1011 1098 l 1
 644 65 l 1
 526 -273 573 -410 168 -410 c 2
 140 -410 l 1
 114 -264 l 1
 186 -264 l 2
 399 -264 385 -204 462 25 c 1
 65 1098 l 1
 213 1098 l 1
 546 118 l 1
EndSplineSet
EndChar

StartChar: afii10086
Encoding: 1092 1092 219
Width: 1375
VWidth: 0
Flags: HW
LayerCount: 2
Fore
SplineSet
899 155 m 0
 1045 155 1140 348 1140 562 c 0
 1140 778 1056 946 909 946 c 0
 849 946 819 935 750 898 c 1
 750 200 l 1
 815 163 841 155 899 155 c 0
472 155 m 0
 530 155 557 164 622 197 c 1
 622 905 l 1
 553 942 519 946 461 946 c 0
 313 946 233 778 233 562 c 0
 233 349 325 155 472 155 c 0
622 -201 m 1
 622 82 l 1
 559 53 527 44 467 44 c 0
 248 44 86 261 86 562 c 0
 86 863 237 1056 462 1056 c 0
 520 1056 559 1038 622 1010 c 1
 622 1349 l 1
 750 1349 l 1
 750 1010 l 1
 813 1038 848 1056 908 1056 c 0
 1131 1056 1287 864 1287 562 c 0
 1287 264 1122 44 902 44 c 0
 841 44 813 53 750 82 c 1
 750 -201 l 1
 622 -201 l 1
EndSplineSet
EndChar

StartChar: afii10088
Encoding: 1094 1094 221
Width: 1060
VWidth: 0
Flags: HW
LayerCount: 2
Fore
SplineSet
899 0 m 1
 136 0 l 1
 136 1098 l 1
 265 1098 l 1
 265 94 l 1
 785 94 l 1
 785 1098 l 1
 914 1098 l 1
 914 156 l 1
 1002 156 l 1
 1002 -223 l 1
 905 -223 l 1
 899 0 l 1
EndSplineSet
EndChar

StartChar: afii10089
Encoding: 1095 1095 222
Width: 965
VWidth: 0
Flags: HW
LayerCount: 2
Fore
SplineSet
207 855 m 2
 207 555 312 514 459 514 c 0
 545 514 670 570 716 764 c 1
 716 1098 l 1
 845 1098 l 1
 845 0 l 1
 716 0 l 1
 716 587 l 1
 673 468 551 409 435 409 c 1
 204 407 78 578 78 857 c 2
 78 1098 l 1
 207 1098 l 1
 207 855 l 2
EndSplineSet
EndChar

StartChar: afii10090
Encoding: 1096 1096 223
Width: 1251
VWidth: 0
Flags: HW
LayerCount: 2
Fore
SplineSet
254 109 m 1
 556 109 l 1
 556 1098 l 1
 691 1098 l 1
 691 109 l 1
 992 109 l 1
 992 1098 l 1
 1129 1098 l 1
 1129 0 l 1
 119 0 l 1
 119 1098 l 1
 254 1098 l 1
 254 109 l 1
EndSplineSet
EndChar

StartChar: afii10091
Encoding: 1097 1097 224
Width: 1295
VWidth: 0
Flags: HW
LayerCount: 2
Fore
SplineSet
1117 -176 m 1
 1125 0 l 1
 119 0 l 1
 119 1098 l 1
 254 1098 l 1
 254 94 l 1
 556 94 l 1
 556 1098 l 1
 691 1098 l 1
 691 94 l 1
 992 94 l 1
 992 1098 l 1
 1129 1098 l 1
 1129 153 l 1
 1219 153 l 1
 1219 -176 l 1
 1117 -176 l 1
EndSplineSet
EndChar

StartChar: afii10092
Encoding: 1098 1098 225
Width: 1135
VWidth: 0
Flags: HW
LayerCount: 2
Fore
SplineSet
744 524 m 2
 407 524 l 1
 407 101 l 1
 750 101 l 2
 895 101 954 229 954 325 c 0
 954 413 885 524 744 524 c 2
408 1098 m 1
 408 631 l 1
 709 631 l 2
 1000 631 1085 450 1085 326 c 0
 1085 181 995 0 712 0 c 2
 279 0 l 1
 279 988 l 1
 37 988 l 1
 37 1098 l 1
 408 1098 l 1
EndSplineSet
EndChar

StartChar: afii10094
Encoding: 1100 1100 226
Width: 903
VWidth: 0
Flags: HW
LayerCount: 2
Fore
SplineSet
500 591 m 2
 247 591 l 1
 247 101 l 1
 507 101 l 2
 651 101 704 255 704 362 c 0
 704 473 640 591 500 591 c 2
248 1098 m 1
 248 697 l 1
 462 697 l 2
 754 697 834 509 834 358 c 0
 834 199 750 0 466 0 c 2
 119 0 l 1
 119 1098 l 1
 248 1098 l 1
EndSplineSet
EndChar

StartChar: afii10095
Encoding: 1101 1101 227
Width: 1006
VWidth: 0
Flags: HW
LayerCount: 2
Fore
SplineSet
382 -27 m 0
 242 -27 114 10 55 68 c 1
 98 158 l 1
 201 96 291 77 374 77 c 0
 601 77 747 253 768 485 c 1
 319 485 l 1
 319 605 l 1
 767 605 l 1
 747 839 627 1024 371 1024 c 0
 259 1024 170 987 95 939 c 1
 50 1025 l 1
 125 1094 263 1127 370 1127 c 0
 770 1127 910 803 910 532 c 0
 910 288 750 -27 382 -27 c 0
EndSplineSet
EndChar

StartChar: afii10096
Encoding: 1102 1102 228
Width: 1432
VWidth: 0
Flags: HW
LayerCount: 2
Fore
SplineSet
894 77 m 0
 1130 77 1195 306 1195 545 c 0
 1195 792 1138 1023 890 1023 c 0
 652 1023 574 779 574 541 c 0
 574 306 652 77 894 77 c 0
1335 547 m 0
 1335 246 1225 -27 890 -27 c 0
 578 -27 448 195 436 490 c 1
 247 490 l 1
 247 0 l 1
 119 0 l 1
 119 1098 l 1
 247 1098 l 1
 247 602 l 1
 436 602 l 1
 449 890 580 1127 894 1127 c 0
 1236 1127 1335 862 1335 547 c 0
EndSplineSet
EndChar

StartChar: afii10097
Encoding: 1103 1103 229
Width: 1005
VWidth: 0
Flags: HW
LayerCount: 2
Fore
SplineSet
413 547 m 2
 756 547 l 1
 756 991 l 1
 413 991 l 2
 272 991 189 862 188 762 c 1
 186 672 270 547 413 547 c 2
756 0 m 1
 756 439 l 1
 427 439 l 1
 232 0 l 1
 71 0 l 1
 291 453 l 1
 126 501 64 643 64 760 c 0
 64 907 154 1098 440 1098 c 2
 884 1098 l 1
 884 0 l 1
 756 0 l 1
EndSplineSet
EndChar

StartChar: afii10099
Encoding: 1106 1106 230
Width: 1113
VWidth: 0
Flags: HW
LayerCount: 2
Fore
SplineSet
283 495 m 1
 283 0 l 1
 115 0 l 1
 115 1098 l 1
 21 1098 l 1
 21 1214 l 1
 115 1214 l 1
 115 1510 l 1
 283 1510 l 1
 283 1214 l 1
 698 1214 l 1
 698 1098 l 1
 283 1098 l 1
 283 713 l 1
 371 824 486 892 636 892 c 0
 893 892 1008 733 1008 445 c 2
 1008 158 l 2
 1008 -148 985 -283 688 -283 c 2
 617 -283 l 1
 605 -141 l 1
 648 -141 l 2
 820 -141 840 -110 840 104 c 2
 840 368 l 2
 840 616 807 739 620 739 c 0
 449 739 310 599 283 495 c 1
EndSplineSet
EndChar

StartChar: afii10101
Encoding: 1108 1108 232
Width: 1006
VWidth: 0
Flags: HW
LayerCount: 2
Fore
SplineSet
578 -27 m 0
 210 -27 51 288 51 532 c 0
 51 803 190 1127 590 1127 c 0
 697 1127 835 1094 911 1025 c 1
 865 939 l 1
 790 987 701 1024 589 1024 c 0
 333 1024 213 839 193 605 c 1
 641 605 l 1
 641 485 l 1
 193 485 l 1
 213 253 360 77 586 77 c 0
 669 77 759 96 862 158 c 1
 905 68 l 1
 846 10 718 -27 578 -27 c 0
EndSplineSet
EndChar

StartChar: afii10107
Encoding: 1114 1114 237
Width: 1591
VWidth: 0
Flags: HW
LayerCount: 2
Fore
SplineSet
882 597 m 1
 882 98 l 1
 1140 98 l 2
 1281 98 1331 260 1331 364 c 0
 1331 471 1272 597 1131 597 c 2
 882 597 l 1
119 1098 m 1
 247 1098 l 1
 247 633 l 1
 753 633 l 1
 753 1098 l 1
 882 1098 l 1
 882 703 l 1
 1089 703 l 2
 1375 703 1468 508 1468 362 c 0
 1468 197 1387 0 1100 0 c 2
 753 0 l 1
 753 536 l 1
 247 536 l 1
 247 0 l 1
 119 0 l 1
 119 1098 l 1
EndSplineSet
EndChar

StartChar: afii10108
Encoding: 1115 1115 238
Width: 1113
VWidth: 0
Flags: HW
LayerCount: 2
Fore
SplineSet
283 495 m 1
 283 0 l 1
 115 0 l 1
 115 1099 l 1
 21 1099 l 1
 21 1215 l 1
 115 1215 l 1
 115 1510 l 1
 283 1510 l 1
 283 1215 l 1
 698 1215 l 1
 698 1099 l 1
 283 1099 l 1
 283 713 l 1
 371 824 486 892 636 892 c 0
 893 892 1008 733 1008 445 c 2
 1008 0 l 1
 840 0 l 1
 840 368 l 2
 840 616 807 739 620 739 c 0
 449 739 310 599 283 495 c 1
EndSplineSet
EndChar

StartChar: afii10193
Encoding: 1119 1119 241
Width: 1081
VWidth: 0
Flags: HW
LayerCount: 2
Fore
SplineSet
495 0 m 1
 119 0 l 1
 119 1098 l 1
 247 1098 l 1
 247 94 l 1
 785 94 l 1
 785 1098 l 1
 914 1098 l 1
 914 0 l 1
 601 0 l 1
 597 -236 l 1
 496 -236 l 1
 495 0 l 1
EndSplineSet
EndChar

StartChar: afii57929
Encoding: 700 700 242
Width: 558
VWidth: 0
Flags: HW
LayerCount: 2
Fore
SplineSet
144 1184 m 1
 282 1634 l 1
 418 1634 l 1
 248 1184 l 1
 144 1184 l 1
EndSplineSet
EndChar

StartChar: alpha
Encoding: 945 945 245
Width: 468
VWidth: 0
Flags: HW
LayerCount: 2
Fore
SplineSet
237 796 m 0
 326 796 370 730 370 664 c 0
 370 598 326 532 237 532 c 0
 149 532 104 598 104 664 c 0
 104 730 149 796 237 796 c 0
EndSplineSet
EndChar

StartChar: alphatonos
Encoding: 940 940 246
Width: 468
VWidth: 0
Flags: HW
LayerCount: 2
Fore
SplineSet
237 796 m 0
 326 796 370 730 370 664 c 0
 370 598 326 532 237 532 c 0
 149 532 104 598 104 664 c 0
 104 730 149 796 237 796 c 0
EndSplineSet
EndChar

StartChar: ampersand
Encoding: 38 38 248
Width: 1496
VWidth: 0
Flags: HW
LayerCount: 2
Fore
SplineSet
679 1365 m 0
 546 1365 457 1289 457 1168 c 0
 457 1066 522 997 620 901 c 1
 772 976 893 1042 893 1174 c 0
 893 1300 790 1365 679 1365 c 0
560 743 m 1
 393 658 278 544 278 393 c 0
 278 226 405 108 648 108 c 0
 804 108 921 164 1024 248 c 1
 824 486 761 505 560 743 c 1
462 844 m 1
 350 969 286 1044 286 1175 c 0
 286 1356 426 1492 678 1492 c 0
 888 1492 1063 1387 1063 1191 c 0
 1063 1024 920 910 716 816 c 1
 1141 356 l 1
 1197 414 1243 493 1277 576 c 1
 1375 498 l 1
 1339 412 1289 333 1226 258 c 1
 1395 43 l 1
 1327 15 1331 14 1262 -8 c 1
 1129 150 l 1
 1010 50 853 -23 638 -23 c 0
 264 -23 125 163 125 389 c 0
 125 605 251 738 462 844 c 1
EndSplineSet
EndChar

StartChar: approxequal
Encoding: 8776 8776 250
Width: 1315
VWidth: 0
Flags: HW
LayerCount: 2
Fore
SplineSet
246 796 m 1
 137 758 l 1
 161 961 269 1076 428 1076 c 0
 515 1076 588 1034 687 966 c 0
 781 901 836 871 892 871 c 0
 982 871 1032 949 1052 1073 c 1
 1158 1103 l 1
 1134 900 1070 788 893 788 c 0
 812 788 728 823 613 904 c 0
 544 953 481 987 427 987 c 0
 324 987 271 920 246 796 c 1
246 398 m 1
 140 367 l 1
 166 573 269 686 429 686 c 0
 523 686 606 634 684 585 c 0
 760 537 834 481 894 481 c 0
 985 481 1035 562 1056 684 c 1
 1161 711 l 1
 1136 509 1078 394 897 394 c 0
 820 394 733 431 616 510 c 1
 547 559 485 594 431 594 c 0
 328 594 275 523 246 398 c 1
EndSplineSet
EndChar

StartChar: asciicircum
Encoding: 94 94 253
Width: 1158
VWidth: 0
Flags: HW
LayerCount: 2
Fore
SplineSet
84 616 m 1
 521 1546 l 1
 611 1546 l 1
 1071 616 l 1
 958 616 l 1
 565 1414 l 1
 200 616 l 1
 84 616 l 1
EndSplineSet
EndChar

StartChar: asciitilde
Encoding: 126 126 254
Width: 1236
VWidth: 0
Flags: HW
LayerCount: 2
Fore
SplineSet
377 692 m 0
 289 692 204 618 156 524 c 1
 116 603 l 1
 160 717 251 803 379 803 c 0
 459 803 514 783 618 735 c 1
 718 690 801 645 861 645 c 0
 943 645 1027 731 1057 814 c 1
 1106 744 l 1
 1057 606 985 537 861 537 c 0
 794 537 721 562 640 598 c 1
 527 652 446 692 377 692 c 0
EndSplineSet
EndChar

StartChar: asterisk
Encoding: 42 42 255
Width: 1106
VWidth: 0
Flags: HW
LayerCount: 2
Fore
SplineSet
633 1533 m 1
 596 1096 l 1
 960 1259 l 1
 1005 1112 l 1
 631 1024 l 1
 686 942 776 840 886 674 c 1
 818 624 822 642 754 593 c 1
 546 980 l 1
 350 592 l 1
 216 674 l 1
 466 1024 l 1
 97 1111 l 1
 141 1259 l 1
 504 1096 l 1
 466 1533 l 1
 633 1533 l 1
EndSplineSet
EndChar

StartChar: at
Encoding: 64 64 256
Width: 1867
VWidth: 0
Flags: HW
LayerCount: 2
Fore
SplineSet
702 677 m 0
 702 534 760 452 881 452 c 0
 1033 452 1088 555 1104 748 c 0
 1111 827 1118 910 1125 997 c 1
 1088 1014 1016 1023 964 1023 c 0
 768 1023 702 885 702 677 c 0
1735 839 m 0
 1735 512 1530 327 1334 327 c 0
 1226 327 1148 391 1128 467 c 1
 1084 438 994 332 855 332 c 0
 691 332 580 455 580 683 c 0
 580 938 702 1143 970 1143 c 0
 1054 1143 1185 1122 1268 1095 c 1
 1242 879 1208 659 1218 556 c 1
 1227 495 1273 436 1348 436 c 0
 1470 436 1616 589 1616 848 c 0
 1616 1225 1342 1443 965 1443 c 0
 584 1443 251 1208 251 696 c 0
 251 286 489 33 885 33 c 0
 1042 33 1184 68 1305 118 c 1
 1331 5 l 1
 1210 -61 1047 -82 882 -82 c 0
 430 -82 131 200 131 682 c 0
 131 1174 476 1553 978 1553 c 0
 1410 1553 1735 1282 1735 839 c 0
EndSplineSet
EndChar

StartChar: b
Encoding: 98 98 258
Width: 1187
VWidth: 0
Flags: HW
LayerCount: 2
Fore
SplineSet
619 1116 m 0
 924 1116 1090 872 1090 549 c 0
 1090 218 932 -24 619 -24 c 0
 475 -24 354 34 264 159 c 1
 251 0 l 1
 147 0 l 1
 147 1521 l 1
 270 1532 l 1
 270 1163 l 2
 270 1072 270 994 267 930 c 1
 353 1062 493 1116 619 1116 c 0
625 1016 m 0
 393 1016 269 840 270 537 c 0
 270 265 367 75 625 75 c 0
 882 75 959 310 959 543 c 0
 959 778 882 1016 625 1016 c 0
EndSplineSet
EndChar

StartChar: backslash
Encoding: 92 92 259
Width: 816
VWidth: 0
Flags: HW
LayerCount: 2
Fore
SplineSet
184 1465 m 1
 774 -60 l 1
 652 -60 l 1
 62 1465 l 1
 184 1465 l 1
EndSplineSet
EndChar

StartChar: bar
Encoding: 124 124 260
Width: 817
VWidth: 0
Flags: HW
LayerCount: 2
Fore
SplineSet
349 1606 m 1
 468 1606 l 1
 468 -413 l 1
 349 -413 l 1
 349 1606 l 1
EndSplineSet
EndChar

StartChar: beta
Encoding: 946 946 261
Width: 468
VWidth: 0
Flags: HW
LayerCount: 2
Fore
SplineSet
237 796 m 0
 326 796 370 730 370 664 c 0
 370 598 326 532 237 532 c 0
 149 532 104 598 104 664 c 0
 104 730 149 796 237 796 c 0
EndSplineSet
EndChar

StartChar: braceleft
Encoding: 123 123 262
Width: 709
VWidth: 0
Flags: HW
LayerCount: 2
Fore
SplineSet
420 82 m 2
 420 -113 466 -179 613 -181 c 1
 613 -277 l 1
 377 -276 294 -135 294 95 c 2
 294 255 l 2
 294 436 275 590 86 590 c 1
 86 689 l 1
 308 694 294 820 294 1025 c 2
 294 1236 l 2
 294 1431 409 1557 613 1557 c 1
 613 1461 l 1
 464 1459 420 1385 420 1197 c 2
 420 934 l 2
 420 823 365 727 247 637 c 1
 379 584 420 448 420 342 c 2
 420 82 l 2
EndSplineSet
EndChar

StartChar: braceright
Encoding: 125 125 263
Width: 716
VWidth: 0
Flags: HW
LayerCount: 2
Fore
SplineSet
464 646 m 1
 334 686 292 828 293 934 c 1
 293 1197 l 2
 293 1385 246 1459 99 1461 c 1
 99 1557 l 1
 331 1557 418 1410 418 1184 c 2
 418 1025 l 2
 418 842 431 693 628 689 c 1
 628 590 l 1
 436 590 418 433 418 255 c 2
 418 42 l 2
 418 -149 308 -276 99 -277 c 1
 99 -181 l 1
 244 -179 293 -112 293 82 c 2
 293 342 l 2
 293 460 325 519 464 646 c 1
EndSplineSet
EndChar

StartChar: bracketleft
Encoding: 91 91 264
Width: 688
VWidth: 0
Flags: HW
LayerCount: 2
Fore
SplineSet
595 -311 m 1
 147 -311 l 1
 147 1467 l 1
 595 1467 l 1
 595 1367 l 1
 283 1367 l 1
 283 -211 l 1
 595 -211 l 1
 595 -311 l 1
EndSplineSet
EndChar

StartChar: bracketright
Encoding: 93 93 265
Width: 688
VWidth: 0
Flags: HW
LayerCount: 2
Fore
SplineSet
93 -211 m 1
 405 -211 l 1
 405 1367 l 1
 93 1367 l 1
 93 1467 l 1
 541 1467 l 1
 541 -311 l 1
 93 -311 l 1
 93 -211 l 1
EndSplineSet
EndChar

StartChar: breve
Encoding: 728 728 266
Width: 774
VWidth: 0
Flags: HW
LayerCount: 2
Fore
SplineSet
389 1345 m 0
 286 1345 159 1435 159 1608 c 1
 251 1608 l 1
 251 1493 322 1437 389 1437 c 0
 455 1437 530 1493 530 1608 c 1
 624 1608 l 1
 624 1436 492 1345 389 1345 c 0
EndSplineSet
EndChar

StartChar: brokenbar
Encoding: 166 166 267
Width: 775
VWidth: 0
Flags: HW
LayerCount: 2
Fore
SplineSet
329 1606 m 1
 449 1606 l 1
 449 907 l 1
 329 907 l 1
 329 1606 l 1
329 290 m 1
 449 290 l 1
 449 -412 l 1
 329 -412 l 1
 329 290 l 1
EndSplineSet
EndChar

StartChar: bullet
Encoding: 8226 8226 268
Width: 808
VWidth: 0
Flags: HW
LayerCount: 2
Fore
SplineSet
674 789 m 0
 674 612 543 455 402 455 c 0
 255 455 134 611 134 783 c 0
 134 961 269 1119 405 1119 c 0
 547 1119 674 962 674 789 c 0
EndSplineSet
EndChar

StartChar: c
Encoding: 99 99 269
Width: 956
VWidth: 0
Flags: HW
LayerCount: 2
Fore
SplineSet
604 -24 m 0
 275 -24 97 235 97 537 c 0
 98 849 275 1116 608 1116 c 0
 715 1116 833 1083 882 1045 c 1
 843 952 l 1
 763 997 666 1010 599 1010 c 0
 369 1010 228 819 228 537 c 0
 228 269 366 79 599 79 c 0
 689 79 779 105 857 139 c 1
 876 50 l 1
 811 2 701 -24 604 -24 c 0
EndSplineSet
EndChar

StartChar: caron
Encoding: 711 711 271
Width: 813
VWidth: 0
Flags: HW
LayerCount: 2
Fore
SplineSet
139 1701 m 1
 239 1701 l 1
 401 1312 l 1
 560 1701 l 1
 662 1701 l 1
 510 1289 l 1
 292 1289 l 1
 139 1701 l 1
EndSplineSet
EndChar

StartChar: cedilla
Encoding: 184 184 276
Width: 599
VWidth: 0
Flags: HW
LayerCount: 2
Fore
SplineSet
267 -410 m 1
 138 -410 l 1
 245 11 l 1
 304 11 l 1
 267 -410 l 1
EndSplineSet
EndChar

StartChar: cent
Encoding: 162 162 277
Width: 1111
VWidth: 0
Flags: HW
LayerCount: 2
Fore
SplineSet
535 352 m 1
 535 1297 l 1
 341 1268 201 1050 201 810 c 0
 201 583 332 383 535 352 c 1
535 1558 m 1
 628 1558 l 1
 628 1402 l 1
 735 1397 830 1360 879 1308 c 1
 838 1225 l 1
 761 1280 692 1293 628 1298 c 1
 628 350 l 1
 711 359 784 393 838 431 c 1
 876 348 l 1
 820 288 718 254 628 247 c 1
 628 136 l 1
 535 136 l 1
 535 247 l 1
 220 276 65 564 65 812 c 1
 67 1062 225 1368 535 1401 c 1
 535 1558 l 1
EndSplineSet
EndChar

StartChar: circumflex
Encoding: 710 710 279
Width: 812
VWidth: 0
Flags: HW
LayerCount: 2
Fore
SplineSet
136 1310 m 1
 294 1701 l 1
 509 1701 l 1
 667 1310 l 1
 556 1310 l 1
 401 1617 l 1
 245 1310 l 1
 136 1310 l 1
EndSplineSet
EndChar

StartChar: colon
Encoding: 58 58 280
Width: 510
VWidth: 0
Flags: HW
LayerCount: 2
Fore
SplineSet
167 -37 m 1
 167 174 l 1
 346 174 l 1
 346 -37 l 1
 167 -37 l 1
167 927 m 1
 167 1136 l 1
 346 1136 l 1
 346 927 l 1
 167 927 l 1
EndSplineSet
EndChar

StartChar: comma
Encoding: 44 44 281
Width: 504
VWidth: 0
Flags: HW
LayerCount: 2
Fore
SplineSet
130 -275 m 1
 137 -139 162 106 162 235 c 1
 338 235 l 1
 339 194 l 1
 307 54 248 -136 202 -275 c 1
 130 -275 l 1
EndSplineSet
EndChar

StartChar: commaaccentcomb
Encoding: 806 806 282
Width: 554
VWidth: 0
Flags: W
LayerCount: 2
Fore
SplineSet
144 -648 m 1
 239 -150 l 1
 404 -150 l 1
 260 -648 l 1
 144 -648 l 1
274 0 m 0
EndSplineSet
EndChar

StartChar: copyright
Encoding: 169 169 283
Width: 1886
VWidth: 0
Flags: HW
LayerCount: 2
Fore
SplineSet
1224 465 m 1
 1261 363 l 1
 1195 323 1058 280 933 280 c 0
 653 280 452 508 452 813 c 0
 452 1122 647 1343 948 1343 c 0
 1068 1343 1175 1306 1257 1248 c 1
 1214 1158 l 1
 1159 1201 1043 1236 943 1236 c 0
 697 1236 584 1035 584 820 c 0
 584 575 703 386 962 386 c 0
 1060 386 1177 430 1224 465 c 1
917 60 m 0
 1397 60 1612 395 1612 803 c 0
 1612 1209 1393 1552 910 1552 c 0
 460 1552 241 1211 241 810 c 0
 241 398 461 60 917 60 c 0
1724 807 m 0
 1724 208 1328 -28 917 -28 c 0
 538 -28 129 208 129 807 c 0
 129 1404 531 1640 910 1640 c 0
 1322 1640 1724 1401 1724 807 c 0
EndSplineSet
EndChar

StartChar: currency
Encoding: 164 164 284
Width: 1146
VWidth: 0
Flags: HW
LayerCount: 2
Fore
SplineSet
157 732 m 0
 157 826 188 914 243 989 c 1
 57 1171 l 1
 121 1230 l 1
 306 1053 l 1
 380 1117 473 1151 574 1151 c 0
 676 1151 766 1116 840 1053 c 1
 1027 1230 l 1
 1088 1168 l 1
 904 989 l 1
 959 910 990 822 990 732 c 0
 990 634 960 546 905 474 c 1
 1087 295 l 1
 1027 234 l 1
 840 412 l 1
 766 350 676 314 574 314 c 0
 471 314 380 348 306 412 c 1
 121 235 l 1
 58 294 l 1
 243 474 l 1
 188 548 157 637 157 732 c 0
252 732 m 0
 252 549 396 402 574 402 c 0
 752 402 896 551 896 732 c 0
 896 913 751 1063 574 1063 c 0
 395 1063 252 914 252 732 c 0
EndSplineSet
EndChar

StartChar: d
Encoding: 100 100 285
Width: 1183
VWidth: 0
Flags: HW
LayerCount: 2
Fore
SplineSet
915 165 m 1
 834 34 686 -23 561 -23 c 0
 269 -23 97 192 97 549 c 0
 97 883 279 1116 557 1116 c 0
 672 1116 839 1071 916 935 c 1
 918 896 916 968 916 968 c 1
 916 1521 l 1
 1036 1532 l 1
 1036 0 l 1
 933 0 l 1
 915 165 l 1
556 83 m 0
 810 83 910 270 909 526 c 1
 909 819 819 1011 554 1011 c 0
 317 1011 230 774 230 547 c 0
 230 299 317 83 556 83 c 0
EndSplineSet
EndChar

StartChar: dagger
Encoding: 8224 8224 286
Width: 829
VWidth: 0
Flags: HW
LayerCount: 2
Fore
SplineSet
362 125 m 1
 362 1098 l 1
 73 1098 l 1
 73 1155 l 1
 362 1155 l 1
 362 1611 l 1
 461 1611 l 1
 461 1155 l 1
 756 1155 l 1
 756 1098 l 1
 466 1098 l 1
 466 125 l 1
 362 125 l 1
EndSplineSet
EndChar

StartChar: daggerdbl
Encoding: 8225 8225 287
Width: 929
VWidth: 0
Flags: HW
LayerCount: 2
Fore
SplineSet
418 218 m 1
 418 534 l 1
 98 534 l 1
 98 654 l 1
 418 654 l 1
 418 1125 l 1
 104 1125 l 1
 104 1249 l 1
 418 1249 l 1
 418 1615 l 1
 516 1615 l 1
 516 1249 l 1
 837 1249 l 1
 837 1125 l 1
 516 1125 l 1
 516 654 l 1
 828 654 l 1
 828 534 l 1
 516 534 l 1
 516 218 l 1
 418 218 l 1
EndSplineSet
EndChar

StartChar: dcroat
Encoding: 273 273 289
Width: 1137
VWidth: 0
Flags: HW
LayerCount: 2
Fore
SplineSet
535 -26 m 1
 244 -29 72 209 72 559 c 0
 72 872 264 1119 528 1119 c 0
 659 1119 821 1053 884 917 c 1
 884 1193 l 1
 690 1193 l 1
 690 1335 l 1
 884 1335 l 1
 884 1486 l 1
 1013 1507 l 1
 1013 1335 l 1
 1134 1335 l 1
 1134 1193 l 1
 1013 1193 l 1
 1013 0 l 1
 908 0 l 1
 881 183 l 1
 815 63 684 -26 535 -26 c 1
532 92 m 0
 787 92 884 339 884 549 c 0
 884 760 798 1001 529 1001 c 0
 272 1001 211 706 211 556 c 0
 211 371 272 92 532 92 c 0
EndSplineSet
EndChar

StartChar: degree
Encoding: 176 176 290
Width: 844
VWidth: 0
Flags: HW
LayerCount: 2
Fore
SplineSet
112 1230 m 0
 112 1417 265 1562 421 1562 c 0
 580 1562 732 1417 732 1230 c 0
 732 1050 586 901 421 901 c 0
 266 901 112 1041 112 1230 c 0
219 1232 m 0
 219 1101 318 1005 423 1005 c 0
 528 1005 627 1102 627 1232 c 0
 627 1362 535 1460 423 1460 c 0
 312 1460 219 1362 219 1232 c 0
EndSplineSet
EndChar

StartChar: delta
Encoding: 948 948 291
Width: 468
VWidth: 0
Flags: HW
LayerCount: 2
Fore
SplineSet
237 796 m 0
 326 796 370 730 370 664 c 0
 370 598 326 532 237 532 c 0
 149 532 104 598 104 664 c 0
 104 730 149 796 237 796 c 0
EndSplineSet
EndChar

StartChar: dieresis
Encoding: 168 168 292
Width: 769
VWidth: 0
Flags: HW
LayerCount: 2
Fore
SplineSet
272 1266 m 1
 136 1266 l 1
 136 1443 l 1
 272 1443 l 1
 272 1266 l 1
649 1266 m 1
 512 1266 l 1
 512 1443 l 1
 649 1443 l 1
 649 1266 l 1
EndSplineSet
EndChar

StartChar: dieresistonos
Encoding: 901 901 293
Width: 468
VWidth: 0
Flags: HW
LayerCount: 2
Fore
SplineSet
237 796 m 0
 326 796 370 730 370 664 c 0
 370 598 326 532 237 532 c 0
 149 532 104 598 104 664 c 0
 104 730 149 796 237 796 c 0
EndSplineSet
EndChar

StartChar: divide
Encoding: 247 247 294
Width: 1099
VWidth: 0
Flags: HW
LayerCount: 2
Fore
SplineSet
598 228 m 1
 598 22 l 1
 446 22 l 1
 446 228 l 1
 598 228 l 1
644 1187 m 1
 644 982 l 1
 446 982 l 1
 446 1187 l 1
 644 1187 l 1
1017 545 m 1
 60 545 l 1
 60 670 l 1
 1017 670 l 1
 1017 545 l 1
EndSplineSet
EndChar

StartChar: dollar
Encoding: 36 36 295
Width: 1263
VWidth: 0
Flags: HW
LayerCount: 2
Fore
SplineSet
679 742 m 1
 679 63 l 1
 898 70 1013 188 1013 433 c 0
 1013 574 965 675 738 729 c 1
 742 727 675 744 679 742 c 1
592 873 m 1
 592 1454 l 1
 359 1441 240 1343 240 1145 c 0
 240 1011 328 933 494 897 c 1
 490 899 592 873 592 873 c 1
592 1741 m 1
 679 1741 l 1
 679 1566 l 1
 851 1562 1003 1516 1092 1458 c 1
 1054 1355 l 1
 989 1392 836 1448 679 1454 c 1
 679 862 l 1
 685 862 805 832 799 835 c 1
 1015 802 1151 681 1151 430 c 0
 1151 108 962 -41 679 -50 c 1
 679 -213 l 1
 592 -213 l 1
 592 -49 l 1
 343 -38 171 38 100 82 c 1
 156 178 l 1
 281 119 417 78 592 67 c 1
 592 756 l 1
 428 795 l 1
 228 832 101 944 101 1134 c 0
 101 1428 291 1552 592 1565 c 1
 592 1741 l 1
EndSplineSet
EndChar

StartChar: dotaccent
Encoding: 729 729 296
Width: 352
VWidth: 0
Flags: HW
LayerCount: 2
Fore
SplineSet
259 1516 m 1
 259 1331 l 1
 106 1331 l 1
 106 1516 l 1
 259 1516 l 1
EndSplineSet
EndChar

StartChar: dotlessi
Encoding: 305 305 297
Width: 376
VWidth: 0
Flags: HW
LayerCount: 2
Fore
SplineSet
268 1098 m 1
 268 0 l 1
 138 0 l 1
 138 1098 l 1
 268 1098 l 1
EndSplineSet
EndChar

StartChar: e
Encoding: 101 101 298
Width: 1086
VWidth: 0
Flags: HW
LayerCount: 2
Fore
SplineSet
591 -24 m 0
 289 -24 97 192 97 540 c 0
 97 875 289 1110 565 1116 c 1
 821 1116 992 919 992 608 c 0
 992 590 991 554 991 533 c 1
 228 533 l 1
 231 250 376 88 594 88 c 0
 732 88 848 131 945 179 c 1
 966 78 l 1
 860 13 749 -24 591 -24 c 0
561 1011 m 0
 370 1011 254 853 233 633 c 1
 857 633 l 1
 857 881 741 1011 561 1011 c 0
EndSplineSet
EndChar

StartChar: eight
Encoding: 56 56 306
Width: 1196
VWidth: 0
Flags: HW
LayerCount: 2
Fore
SplineSet
601 1415 m 0
 451 1415 306 1338 306 1180 c 0
 306 1014 406 910 601 865 c 1
 795 909 892 1013 892 1180 c 0
 892 1338 751 1415 601 1415 c 0
601 719 m 1
 411 676 266 571 266 400 c 0
 266 220 416 108 601 108 c 0
 785 108 931 220 931 399 c 0
 931 570 794 676 601 719 c 1
601 -24 m 0
 340 -24 121 118 121 383 c 0
 121 576 241 741 456 802 c 1
 266 860 153 986 153 1173 c 0
 153 1406 338 1548 602 1548 c 0
 863 1548 1043 1407 1043 1173 c 0
 1043 984 936 860 765 802 c 1
 959 742 1076 578 1076 383 c 0
 1076 119 863 -24 601 -24 c 0
EndSplineSet
EndChar

StartChar: emdash
Encoding: 8212 8212 308
Width: 2553
VWidth: 0
Flags: HW
LayerCount: 2
Fore
SplineSet
2378 694 m 1
 2378 571 l 1
 189 571 l 1
 189 694 l 1
 2378 694 l 1
EndSplineSet
EndChar

StartChar: endash
Encoding: 8211 8211 309
Width: 1338
VWidth: 0
Flags: HW
LayerCount: 2
Fore
SplineSet
1185 694 m 1
 1185 571 l 1
 162 571 l 1
 162 694 l 1
 1185 694 l 1
EndSplineSet
EndChar

StartChar: eng
Encoding: 331 331 310
Width: 1086
VWidth: 0
Flags: HW
LayerCount: 2
Fore
SplineSet
617 -224 m 1
 611 -115 l 1
 648 -115 l 2
 825 -115 844 -93 844 143 c 2
 844 504 l 2
 844 854 833 1005 619 1005 c 0
 409 1005 271 852 251 748 c 1
 251 -3 l 1
 123 -3 l 1
 119 1098 l 1
 231 1098 l 1
 245 924 l 1
 329 1050 488 1116 636 1117 c 0
 870 1120 973 978 973 650 c 2
 973 191 l 2
 973 -104 961 -224 691 -224 c 2
 617 -224 l 1
EndSplineSet
EndChar

StartChar: epsilon
Encoding: 949 949 312
Width: 468
VWidth: 0
Flags: HW
LayerCount: 2
Fore
SplineSet
237 796 m 0
 326 796 370 730 370 664 c 0
 370 598 326 532 237 532 c 0
 149 532 104 598 104 664 c 0
 104 730 149 796 237 796 c 0
EndSplineSet
EndChar

StartChar: epsilontonos
Encoding: 941 941 313
Width: 468
VWidth: 0
Flags: HW
LayerCount: 2
Fore
SplineSet
237 796 m 0
 326 796 370 730 370 664 c 0
 370 598 326 532 237 532 c 0
 149 532 104 598 104 664 c 0
 104 730 149 796 237 796 c 0
EndSplineSet
EndChar

StartChar: equal
Encoding: 61 61 314
Width: 1240
VWidth: 0
Flags: HW
LayerCount: 2
Fore
SplineSet
149 829 m 1
 149 941 l 1
 1091 941 l 1
 1091 829 l 1
 149 829 l 1
150 390 m 1
 150 500 l 1
 1090 500 l 1
 1090 390 l 1
 150 390 l 1
EndSplineSet
EndChar

StartChar: eta
Encoding: 951 951 315
Width: 468
VWidth: 0
Flags: HW
LayerCount: 2
Fore
SplineSet
237 796 m 0
 326 796 370 730 370 664 c 0
 370 598 326 532 237 532 c 0
 149 532 104 598 104 664 c 0
 104 730 149 796 237 796 c 0
EndSplineSet
EndChar

StartChar: etatonos
Encoding: 942 942 316
Width: 468
VWidth: 0
Flags: HW
LayerCount: 2
Fore
SplineSet
237 796 m 0
 326 796 370 730 370 664 c 0
 370 598 326 532 237 532 c 0
 149 532 104 598 104 664 c 0
 104 730 149 796 237 796 c 0
EndSplineSet
EndChar

StartChar: eth
Encoding: 240 240 317
Width: 1194
VWidth: 0
Flags: HW
LayerCount: 2
Fore
SplineSet
566 1000 m 0
 729 1000 813 929 889 866 c 1
 828 996 757 1097 543 1338 c 1
 261 1219 l 1
 226 1326 l 1
 463 1421 l 1
 212 1643 l 1
 401 1643 l 1
 559 1471 l 1
 856 1587 l 1
 894 1484 l 1
 638 1385 l 1
 810 1190 926 1043 996 917 c 1
 1068 770 1097 651 1096 515 c 1
 1096 226 936 -28 593 -28 c 0
 257 -28 88 234 88 499 c 0
 88 798 280 1000 566 1000 c 0
592 872 m 0
 372 872 244 687 244 490 c 0
 244 288 356 72 598 72 c 0
 826 72 950 255 950 472 c 0
 950 656 826 872 592 872 c 0
EndSplineSet
EndChar

StartChar: exclam
Encoding: 33 33 318
Width: 650
VWidth: 0
Flags: HW
LayerCount: 2
Fore
SplineSet
410 1521 m 1
 410 1432 l 1
 358 426 l 1
 292 426 l 1
 233 1432 l 1
 233 1521 l 1
 410 1521 l 1
202 111 m 0
 202 166 237 228 325 228 c 0
 415 228 449 166 449 111 c 0
 449 55 415 -8 325 -8 c 0
 237 -8 202 55 202 111 c 0
EndSplineSet
EndChar

StartChar: exclamdown
Encoding: 161 161 319
Width: 650
VWidth: 0
Flags: HW
LayerCount: 2
Fore
SplineSet
235 13 m 1
 235 103 l 1
 285 1109 l 1
 351 1109 l 1
 412 103 l 1
 412 13 l 1
 235 13 l 1
449 1424 m 0
 449 1369 413 1307 325 1307 c 0
 235 1307 202 1369 202 1424 c 0
 202 1479 235 1542 325 1542 c 0
 413 1542 449 1479 449 1424 c 0
EndSplineSet
EndChar

StartChar: f
Encoding: 102 102 320
Width: 638
VWidth: 0
Flags: HW
LayerCount: 2
Fore
SplineSet
552 1463 m 1
 384 1469 340 1380 340 1131 c 2
 340 1096 l 1
 607 1096 l 1
 607 1005 l 1
 340 1005 l 1
 340 0 l 1
 216 0 l 1
 216 1005 l 1
 36 1005 l 1
 36 1101 l 1
 216 1096 l 1
 216 1137 l 2
 216 1439 326 1558 546 1549 c 0
 582 1547 627 1541 676 1534 c 1
 670 1446 l 1
 630 1453 589 1458 552 1463 c 1
EndSplineSet
EndChar

StartChar: five
Encoding: 53 53 321
Width: 1195
VWidth: 0
Flags: HW
LayerCount: 2
Fore
SplineSet
1005 1521 m 1
 992 1385 l 1
 353 1385 l 1
 346 1168 342 1059 337 842 c 1
 425 905 515 931 610 931 c 0
 928 931 1067 722 1067 483 c 0
 1067 178 854 -24 514 -24 c 0
 359 -24 248 -11 129 111 c 1
 187 221 l 1
 273 146 371 106 536 106 c 0
 770 106 921 258 921 478 c 0
 921 659 813 804 580 804 c 0
 477 804 396 776 335 711 c 1
 212 720 l 1
 252 1521 l 1
 1005 1521 l 1
EndSplineSet
EndChar

StartChar: fj
Encoding: 65536 -1 322
Width: 1033
VWidth: 0
Flags: HW
LayerCount: 2
Fore
SplineSet
751 1496 m 1
 919 1496 l 1
 919 1298 l 1
 751 1298 l 1
 751 1496 l 1
534 -502 m 1
 512 -351 l 1
 564 -351 l 2
 746 -351 751 -286 751 -121 c 2
 751 980 l 1
 348 980 l 1
 348 0 l 1
 180 0 l 1
 180 980 l 1
 20 980 l 1
 20 1098 l 1
 180 1098 l 1
 180 1450 265 1536 538 1536 c 2
 611 1536 l 1
 631 1408 l 1
 537 1408 l 2
 354 1408 348 1331 348 1098 c 1
 919 1098 l 1
 919 -139 l 2
 919 -407 859 -502 586 -502 c 2
 534 -502 l 1
EndSplineSet
EndChar

StartChar: florin
Encoding: 402 402 323
Width: 943
VWidth: 0
Flags: HW
LayerCount: 2
Fore
SplineSet
400 917 m 1
 242 917 l 1
 251 1046 l 1
 422 1046 l 1
 446 1231 l 1
 472 1421 544 1600 752 1600 c 0
 786 1600 807 1598 865 1580 c 1
 858 1453 l 1
 810 1477 801 1471 776 1471 c 0
 669 1471 634 1404 619 1287 c 1
 577 1046 l 1
 759 1046 l 1
 749 918 l 1
 559 918 l 1
 425 131 l 1
 375 -154 308 -372 101 -372 c 0
 79 -372 74 -372 26 -356 c 1
 34 -237 l 1
 70 -253 72 -250 91 -250 c 0
 177 -250 218 -140 242 -11 c 1
 306 287 346 614 400 917 c 1
EndSplineSet
EndChar

StartChar: four
Encoding: 52 52 324
Width: 1192
VWidth: 0
Flags: HW
LayerCount: 2
Fore
SplineSet
798 1314 m 1
 253 512 l 1
 798 512 l 1
 798 1314 l 1
1093 402 m 1
 922 402 l 1
 922 0 l 1
 798 0 l 1
 798 402 l 1
 116 402 l 1
 116 538 l 1
 802 1521 l 1
 922 1521 l 1
 922 512 l 1
 1108 512 l 1
 1093 402 l 1
EndSplineSet
EndChar

StartChar: fraction
Encoding: 8260 8260 325
Width: 1115
VWidth: 0
Flags: HW
LayerCount: 2
Fore
SplineSet
934 1597 m 1
 1033 1597 l 1
 169 0 l 1
 69 0 l 1
 934 1597 l 1
EndSplineSet
EndChar

StartChar: g
Encoding: 103 103 326
Width: 1173
VWidth: 0
Flags: HW
LayerCount: 2
Fore
SplineSet
569 101 m 0
 820 101 913 309 912 499 c 1
 912 613 l 2
 912 812 819 1015 566 1014 c 1
 310 1014 221 722 221 549 c 0
 221 372 319 101 569 101 c 0
316 -509 m 1
 301 -398 l 1
 533 -398 l 2
 897 -398 919 -187 919 124 c 1
 919 97 912 198 912 198 c 1
 834 80 727 1 553 1 c 0
 212 1 91 337 91 534 c 0
 91 812 208 1116 577 1116 c 0
 715 1116 819 1065 912 942 c 1
 903 1096 l 1
 1034 1096 l 1
 1034 80 l 2
 1034 -151 1028 -509 517 -509 c 2
 316 -509 l 1
EndSplineSet
EndChar

StartChar: gamma
Encoding: 947 947 327
Width: 468
VWidth: 0
Flags: HW
LayerCount: 2
Fore
SplineSet
237 796 m 0
 326 796 370 730 370 664 c 0
 370 598 326 532 237 532 c 0
 149 532 104 598 104 664 c 0
 104 730 149 796 237 796 c 0
EndSplineSet
EndChar

StartChar: gcommaaccent
Encoding: 291 291 331
Width: 1150
VWidth: 0
Flags: HW
LayerCount: 2
Fore
SplineSet
801 1762 m 1
 691 1275 l 1
 508 1275 l 1
 673 1762 l 1
 801 1762 l 1
EndSplineSet
Refer: 326 103 N 1 0 0 1 0 0 2
EndChar

StartChar: germandbls
Encoding: 223 223 333
Width: 1205
VWidth: 0
Flags: HW
LayerCount: 2
Fore
SplineSet
807 108 m 2
 948 108 1026 214 1026 347 c 0
 1026 520 720 668 595 755 c 1
 545 792 512 807 512 846 c 0
 512 870 517 908 576 945 c 0
 718 1034 836 1069 836 1218 c 0
 836 1354 693 1449 567 1449 c 0
 331 1449 251 1284 251 1082 c 2
 251 0 l 1
 123 0 l 1
 123 1060 l 2
 123 1360 253 1548 561 1548 c 0
 815 1548 956 1410 956 1205 c 0
 956 1008 814 970 650 864 c 1
 842 707 1150 614 1150 351 c 0
 1150 86 991 0 783 0 c 2
 416 0 l 1
 428 108 l 1
 807 108 l 2
EndSplineSet
EndChar

StartChar: grave
Encoding: 96 96 334
Width: 702
VWidth: 0
Flags: HW
LayerCount: 2
Fore
SplineSet
447 1288 m 1
 128 1678 l 1
 352 1678 l 1
 536 1288 l 1
 447 1288 l 1
EndSplineSet
EndChar

StartChar: greater
Encoding: 62 62 335
Width: 1167
VWidth: 0
Flags: HW
LayerCount: 2
Fore
SplineSet
113 250 m 1
 919 622 l 1
 116 1042 l 1
 116 1165 l 1
 1070 656 l 1
 1070 577 l 1
 113 122 l 1
 113 250 l 1
EndSplineSet
EndChar

StartChar: greaterequal
Encoding: 8805 8805 336
Width: 1164
VWidth: 0
Flags: HW
LayerCount: 2
Fore
SplineSet
149 1217 m 1
 149 1341 l 1
 1051 809 l 1
 1051 741 l 1
 144 240 l 1
 144 365 l 1
 935 774 l 1
 149 1217 l 1
1073 131 m 1
 1073 12 l 1
 109 12 l 1
 109 130 l 1
 1073 131 l 1
EndSplineSet
EndChar

StartChar: guillemotleft
Encoding: 171 171 337
Width: 962
VWidth: 0
Flags: HW
LayerCount: 2
Fore
SplineSet
752 157 m 1
 460 573 l 1
 754 959 l 1
 849 935 l 1
 597 561 l 1
 846 182 l 1
 752 157 l 1
391 157 m 1
 141 503 l 1
 107 553 l 1
 394 959 l 1
 508 935 l 1
 237 561 l 1
 503 182 l 1
 391 157 l 1
EndSplineSet
EndChar

StartChar: guillemotright
Encoding: 187 187 338
Width: 941
VWidth: 0
Flags: HW
LayerCount: 2
Fore
SplineSet
844 547 m 1
 564 157 l 1
 455 182 l 1
 721 562 l 1
 460 935 l 1
 567 959 l 1
 844 547 l 1
486 547 m 1
 192 157 l 1
 97 182 l 1
 349 562 l 1
 99 935 l 1
 192 959 l 1
 486 547 l 1
EndSplineSet
EndChar

StartChar: guilsinglleft
Encoding: 8249 8249 339
Width: 636
VWidth: 0
Flags: HW
LayerCount: 2
Fore
SplineSet
377 993 m 1
 488 993 l 1
 270 593 l 1
 483 187 l 1
 372 187 l 1
 150 593 l 1
 377 993 l 1
EndSplineSet
EndChar

StartChar: guilsinglright
Encoding: 8250 8250 340
Width: 632
VWidth: 0
Flags: HW
LayerCount: 2
Fore
SplineSet
493 595 m 1
 267 187 l 1
 155 187 l 1
 373 595 l 1
 161 993 l 1
 272 993 l 1
 493 595 l 1
EndSplineSet
EndChar

StartChar: h
Encoding: 104 104 341
Width: 1149
VWidth: 0
Flags: HW
PickledData: "(dp1
S'com.typemytype.robofont.layerData'
p2
(dp3
s."
LayerCount: 2
Fore
SplineSet
886 0 m 1
 886 661 l 2
 886 899 826 1011 628 1011 c 0
 433 1011 301 896 273 741 c 1
 271 701 271 660 271 622 c 2
 271 0 l 1
 147 0 l 1
 147 1521 l 1
 271 1532 l 1
 271 1009 l 2
 271 949 270 993 268 930 c 1
 360 1058 491 1116 652 1116 c 0
 904 1116 1009 956 1009 685 c 2
 1009 0 l 1
 886 0 l 1
EndSplineSet
EndChar

StartChar: hbar
Encoding: 295 295 342
Width: 1077
VWidth: 0
Flags: HW
LayerCount: 2
Fore
SplineSet
246 0 m 1
 117 0 l 1
 117 1300 l 1
 28 1300 l 1
 28 1403 l 1
 117 1403 l 1
 117 1486 l 1
 246 1507 l 1
 246 1403 l 1
 512 1403 l 1
 512 1300 l 1
 246 1300 l 1
 246 933 l 1
 340 1056 477 1127 652 1127 c 0
 890 1127 967 920 967 662 c 2
 967 0 l 1
 839 0 l 1
 839 593 l 2
 839 883 805 1015 600 1015 c 0
 412 1015 263 859 246 750 c 1
 246 0 l 1
EndSplineSet
EndChar

StartChar: horncmb
Encoding: 795 795 344
Width: 590
VWidth: 0
Flags: HW
LayerCount: 2
Fore
SplineSet
226 501 m 1
 343 501 l 1
 364 452 374 400 374 351 c 0
 374 245 324 156 223 156 c 0
 194 156 162 159 131 162 c 1
 131 256 l 1
 146 256 163 254 180 254 c 0
 238 254 256 299 256 354 c 0
 256 403 241 460 226 501 c 1
EndSplineSet
EndChar

StartChar: hungarumlaut
Encoding: 733 733 345
Width: 741
VWidth: 0
Flags: HW
LayerCount: 2
Fore
SplineSet
612 1646 m 1
 403 1328 l 1
 315 1328 l 1
 497 1646 l 1
 612 1646 l 1
414 1646 m 1
 201 1328 l 1
 118 1328 l 1
 294 1646 l 1
 414 1646 l 1
EndSplineSet
EndChar

StartChar: hyphen
Encoding: 45 45 346
Width: 670
VWidth: 0
Flags: HW
LayerCount: 2
Fore
SplineSet
93 531 m 1
 93 641 l 1
 577 641 l 1
 577 531 l 1
 93 531 l 1
EndSplineSet
EndChar

StartChar: i
Encoding: 105 105 347
Width: 445
VWidth: 0
Flags: HW
PickledData: "(dp1
S'com.typemytype.robofont.layerData'
p2
(dp3
s."
LayerCount: 2
Fore
SplineSet
293 1492 m 1
 293 1324 l 1
 169 1324 l 1
 169 1492 l 1
 293 1492 l 1
294 1096 m 1
 294 0 l 1
 169 0 l 1
 169 1096 l 1
 294 1096 l 1
EndSplineSet
EndChar

StartChar: iota
Encoding: 953 953 356
Width: 468
VWidth: 0
Flags: HW
LayerCount: 2
Fore
SplineSet
237 796 m 0
 326 796 370 730 370 664 c 0
 370 598 326 532 237 532 c 0
 149 532 104 598 104 664 c 0
 104 730 149 796 237 796 c 0
EndSplineSet
EndChar

StartChar: iotatonos
Encoding: 943 943 359
Width: 468
VWidth: 0
Flags: HW
LayerCount: 2
Fore
SplineSet
237 796 m 0
 326 796 370 730 370 664 c 0
 370 598 326 532 237 532 c 0
 149 532 104 598 104 664 c 0
 104 730 149 796 237 796 c 0
EndSplineSet
EndChar

StartChar: j
Encoding: 106 106 361
Width: 408
VWidth: 0
Flags: HW
PickledData: "(dp1
S'com.typemytype.robofont.layerData'
p2
(dp3
s."
LayerCount: 2
Fore
SplineSet
286 1491 m 1
 286 1324 l 1
 161 1324 l 1
 161 1491 l 1
 286 1491 l 1
286 1096 m 1
 286 -247 l 2
 286 -488 228 -550 -9 -550 c 2
 -58 -550 l 1
 -77 -437 l 1
 -28 -437 l 2
 162 -437 161 -371 161 -206 c 2
 161 1096 l 1
 286 1096 l 1
EndSplineSet
EndChar

StartChar: k
Encoding: 107 107 363
Width: 986
VWidth: 0
Flags: HW
LayerCount: 2
Fore
SplineSet
149 0 m 1
 149 1522 l 1
 272 1532 l 1
 272 663 l 2
 272 636 274 578 274 578 c 1
 290 598 292 598 310 619 c 1
 438 753 623 941 777 1096 c 1
 943 1096 l 1
 485 637 l 1
 976 0 l 1
 819 0 l 1
 400 567 l 1
 272 450 l 1
 272 0 l 1
 149 0 l 1
EndSplineSet
EndChar

StartChar: kgreenlandic
Encoding: 312 312 366
Width: 1095
VWidth: 0
Flags: HW
LayerCount: 2
Fore
SplineSet
817 0 m 1
 271 470 l 1
 261 538 l 1
 261 0 l 1
 162 0 l 1
 162 1108 l 1
 261 1108 l 1
 261 578 l 1
 768 1108 l 1
 924 1108 l 1
 371 521 l 1
 636 247 727 274 951 0 c 1
 817 0 l 1
EndSplineSet
EndChar

StartChar: l
Encoding: 108 108 367
Width: 528
VWidth: 0
Flags: HW
PickledData: "(dp1
S'com.typemytype.robofont.layerData'
p2
(dp3
S'back'
p4
(dp5
S'name'
p6
S'l'
sS'lib'
p7
(dp8
sS'unicodes'
p9
(tsS'width'
p10
I528
sS'contours'
p11
((dp12
S'points'
p13
((dp14
S'segmentType'
p15
S'curve'
p16
sS'x'
I423
sS'smooth'
p17
I01
sS'y'
I-23
s(dp18
S'y'
I-23
sS'x'
I462
sg17
I00
s(dp19
S'y'
I-20
sS'x'
I504
sg17
I00
s(dp20
g15
S'curve'
p21
sS'x'
I610
sg17
I00
sS'y'
I1
s(dp22
g15
S'line'
p23
sS'x'
I605
sg17
I00
sS'y'
I97
s(dp24
S'y'
I86
sS'x'
I561
sg17
I00
s(dp25
S'y'
I74
sS'x'
I501
sg17
I00
s(dp26
g15
S'curve'
p27
sS'x'
I451
sg17
I01
sS'y'
I74
s(dp28
S'y'
I74
sS'x'
I329
sg17
I00
s(dp29
S'y'
I108
sS'x'
I279
sg17
I00
s(dp30
g15
S'curve'
p31
sS'x'
I279
sg17
I01
sS'y'
I269
s(dp32
g15
S'line'
p33
sS'x'
I279
sg17
I00
sS'y'
I1013
s(dp34
g15
S'line'
p35
sS'x'
I599
sg17
I00
sS'y'
I1013
s(dp36
g15
S'line'
p37
sS'x'
I599
sg17
I00
sS'y'
I1114
s(dp38
g15
S'line'
p39
sS'x'
I279
sg17
I00
sS'y'
I1114
s(dp40
g15
S'line'
p41
sS'x'
I279
sg17
I00
sS'y'
I1351
s(dp42
g15
S'line'
p43
sS'x'
I192
sg17
I00
sS'y'
I1345
s(dp44
g15
S'line'
p45
sS'x'
I159
sg17
I00
sS'y'
I1112
s(dp46
g15
S'line'
p47
sS'x'
I5
sg17
I00
sS'y'
I1097
s(dp48
g15
S'line'
p49
sS'x'
I2
sg17
I00
sS'y'
I1013
s(dp50
g15
S'line'
p51
sS'x'
I157
sg17
I00
sS'y'
I1013
s(dp52
S'y'
I1013
sS'x'
I157
sg17
I00
s(dp53
S'y'
I243
sS'x'
I157
sg17
I00
s(dp54
g15
S'curve'
p55
sS'x'
I157
sg17
I00
sS'y'
I243
s(dp56
S'y'
I53
sS'x'
I157
sg17
I00
s(dp57
S'y'
I-23
sS'x'
I241
sg17
I00
stp58
stp59
sS'components'
p60
(tsS'anchors'
p61
((dp62
S'y'
I0
sS'x'
I336
sg6
S'bottom'
p63
s(dp64
S'y'
I549
sS'x'
I336
sg6
S'center'
p65
stp66
sss."
LayerCount: 2
Fore
SplineSet
423 -23 m 0
 241 -23 157 53 157 243 c 2
 157 1522 l 1
 279 1532 l 1
 279 269 l 2
 279 108 329 74 451 74 c 0
 501 74 532 86 576 97 c 1
 581 1 l 1
 475 -20 462 -23 423 -23 c 0
EndSplineSet
EndChar

StartChar: lambda
Encoding: 955 955 369
Width: 468
VWidth: 0
Flags: HW
LayerCount: 2
Fore
SplineSet
237 796 m 0
 326 796 370 730 370 664 c 0
 370 598 326 532 237 532 c 0
 149 532 104 598 104 664 c 0
 104 730 149 796 237 796 c 0
EndSplineSet
EndChar

StartChar: less
Encoding: 60 60 373
Width: 1165
VWidth: 0
Flags: HW
LayerCount: 2
Fore
SplineSet
1052 113 m 1
 98 579 l 1
 98 658 l 1
 1054 1158 l 1
 1054 1032 l 1
 247 622 l 1
 1052 240 l 1
 1052 113 l 1
EndSplineSet
EndChar

StartChar: lessequal
Encoding: 8804 8804 374
Width: 1164
VWidth: 0
Flags: HW
LayerCount: 2
Fore
SplineSet
1056 130 m 1
 1056 12 l 1
 84 12 l 1
 84 131 l 1
 1056 130 l 1
1022 362 m 1
 1022 237 l 1
 124 736 l 1
 124 809 l 1
 1022 1338 l 1
 1022 1214 l 1
 239 780 l 1
 1022 362 l 1
EndSplineSet
EndChar

StartChar: logicalnot
Encoding: 172 172 375
Width: 1197
VWidth: 0
Flags: HW
LayerCount: 2
Fore
SplineSet
1076 819 m 1
 1076 268 l 1
 967 268 l 1
 967 707 l 1
 99 707 l 1
 99 819 l 1
 1076 819 l 1
EndSplineSet
EndChar

StartChar: lozenge
Encoding: 9674 9674 376
Width: 1103
VWidth: 0
Flags: HW
LayerCount: 2
Fore
SplineSet
605 1635 m 1
 1019 794 l 1
 596 -49 l 1
 496 -49 l 1
 82 791 l 1
 503 1635 l 1
 605 1635 l 1
544 77 m 1
 668 312 791 550 916 791 c 1
 797 1027 675 1262 557 1502 c 1
 431 1270 310 1032 184 793 c 1
 305 556 419 311 544 77 c 1
EndSplineSet
EndChar

StartChar: lslash
Encoding: 322 322 377
Width: 548
VWidth: 0
Flags: HW
LayerCount: 2
Fore
SplineSet
456 892 m 1
 456 770 l 1
 272 608 l 1
 272 427 l 2
 272 159 274 76 411 76 c 0
 444 76 499 82 564 88 c 1
 579 -12 l 1
 512 -20 402 -25 395 -25 c 0
 151 -25 143 87 143 474 c 2
 143 493 l 1
 31 394 l 1
 31 514 l 1
 143 613 l 1
 143 1487 l 1
 272 1507 l 1
 272 729 l 1
 456 892 l 1
EndSplineSet
EndChar

StartChar: m
Encoding: 109 109 378
Width: 1805
VWidth: 0
Flags: HW
LayerCount: 2
Fore
SplineSet
1541 0 m 1
 1541 536 l 2
 1541 797 1526 1010 1310 1010 c 0
 1142 1010 1020 905 975 726 c 1
 976 674 977 623 980 568 c 1
 980 0 l 1
 857 0 l 1
 857 558 l 2
 857 817 823 1010 622 1010 c 0
 438 1010 311 904 276 740 c 1
 274 699 274 661 274 623 c 2
 274 0 l 1
 150 0 l 1
 150 0 147 994 147 1096 c 1
 255 1096 l 1
 271 928 l 1
 334 1035 471 1116 617 1116 c 0
 839 1116 917 1001 947 909 c 1
 1029 1054 1158 1116 1316 1116 c 0
 1560 1116 1665 973 1665 708 c 2
 1665 0 l 1
 1541 0 l 1
EndSplineSet
EndChar

StartChar: macron
Encoding: 175 175 379
Width: 1131
VWidth: 0
Flags: HW
LayerCount: 2
Fore
SplineSet
987 1688 m 1
 987 1561 l 1
 145 1561 l 1
 145 1688 l 1
 987 1688 l 1
EndSplineSet
EndChar

StartChar: middot
Encoding: 183 183 380
Width: 468
VWidth: 0
Flags: W
LayerCount: 2
Fore
SplineSet
318 759 m 1
 318 561 l 1
 150 561 l 1
 150 759 l 1
 318 759 l 1
EndSplineSet
EndChar

StartChar: minus
Encoding: 8722 8722 381
Width: 1212
VWidth: 0
Flags: HW
LayerCount: 2
Fore
SplineSet
123 701 m 1
 1098 701 l 1
 1098 578 l 1
 123 578 l 1
 123 701 l 1
EndSplineSet
EndChar

StartChar: multiply
Encoding: 215 215 382
Width: 809
VWidth: 0
Flags: HW
LayerCount: 2
Fore
SplineSet
751 -14 m 1
 707 -16 l 1
 674 33 274 549 241 598 c 1
 -75 203 l 1
 -114 206 l 1
 376 837 l 1
 42 1254 l 1
 84 1252 l 1
 552 638 l 1
 871 1032 l 1
 907 1033 l 1
 419 398 l 1
 751 -14 l 1
EndSplineSet
EndChar

StartChar: n
Encoding: 110 110 383
Width: 1152
VWidth: 0
Flags: HW
LayerCount: 2
Fore
SplineSet
147 0 m 1
 147 1096 l 1
 255 1096 l 1
 272 927 l 1
 350 1044 492 1116 645 1116 c 0
 895 1116 1012 987 1012 680 c 2
 1012 0 l 1
 889 0 l 1
 889 0 889 666 888 736 c 1
 881 929 813 1010 638 1010 c 0
 432 1010 307 893 277 741 c 1
 274 706 274 673 274 643 c 2
 274 0 l 1
 147 0 l 1
EndSplineSet
EndChar

StartChar: nine
Encoding: 57 57 387
Width: 1142
VWidth: 0
Flags: HW
LayerCount: 2
Fore
SplineSet
903 1086 m 0
 903 1267 804 1428 584 1428 c 0
 367 1428 243 1260 243 1081 c 0
 243 886 369 754 577 754 c 0
 812 754 903 908 903 1086 c 0
551 627 m 0
 314 627 93 803 93 1080 c 0
 93 1333 278 1548 581 1548 c 0
 899 1548 1056 1319 1056 1064 c 0
 1056 859 1003 767 824 512 c 0
 824 511 428 0 428 0 c 1
 265 0 l 1
 824 711 l 1
 750 664 646 627 551 627 c 0
EndSplineSet
EndChar

StartChar: notequal
Encoding: 8800 8800 388
Width: 1135
VWidth: 0
Flags: HW
LayerCount: 2
Fore
SplineSet
779 1243 m 1
 871 1231 l 1
 755 931 l 1
 1032 931 l 1
 1039 823 l 1
 706 823 l 1
 535 479 l 1
 1034 479 l 1
 1039 378 l 1
 484 378 l 1
 337 50 l 1
 247 68 l 1
 364 378 l 1
 106 378 l 1
 100 479 l 1
 420 479 l 1
 586 823 l 1
 106 823 l 1
 98 930 l 1
 636 930 l 1
 779 1243 l 1
EndSplineSet
EndChar

StartChar: nu
Encoding: 957 957 390
Width: 468
VWidth: 0
Flags: HW
LayerCount: 2
Fore
SplineSet
237 796 m 0
 326 796 370 730 370 664 c 0
 370 598 326 532 237 532 c 0
 149 532 104 598 104 664 c 0
 104 730 149 796 237 796 c 0
EndSplineSet
EndChar

StartChar: numbersign
Encoding: 35 35 391
Width: 1108
VWidth: 0
Flags: HW
LayerCount: 2
Fore
SplineSet
739 952 m 1
 485 952 l 1
 396 505 l 1
 652 505 l 1
 739 952 l 1
984 1041 m 1
 969 952 l 1
 847 952 l 1
 777 505 l 1
 902 505 l 1
 892 414 l 1
 764 414 l 1
 676 -28 l 1
 546 -28 l 1
 632 414 l 1
 376 414 l 1
 296 -28 l 1
 194 -28 l 1
 265 414 l 1
 109 414 l 1
 119 505 l 1
 282 505 l 1
 346 951 l 1
 185 951 l 1
 195 1041 l 1
 368 1041 l 1
 452 1464 l 1
 586 1464 l 1
 505 1041 l 1
 758 1041 l 1
 828 1464 l 1
 928 1464 l 1
 866 1041 l 1
 984 1041 l 1
EndSplineSet
EndChar

StartChar: o
Encoding: 111 111 392
Width: 1190
VWidth: 0
Flags: HW
LayerCount: 2
Fore
SplineSet
1093 547 m 0
 1093 222 910 -24 592 -24 c 0
 287 -24 97 222 97 545 c 0
 97 870 285 1116 600 1116 c 0
 916 1116 1093 869 1093 547 c 0
230 542 m 0
 230 283 350 75 601 75 c 0
 849 75 961 282 961 545 c 0
 961 811 855 1015 597 1015 c 0
 349 1015 230 805 230 542 c 0
EndSplineSet
EndChar

StartChar: oe
Encoding: 339 339 397
Width: 1932
VWidth: 0
Flags: HW
LayerCount: 2
Fore
SplineSet
1092 626 m 1
 1710 626 l 1
 1710 633 1710 635 1710 641 c 0
 1705 888 1589 1018 1422 1018 c 0
 1232 1018 1113 837 1092 626 c 1
588 84 m 0
 855 84 942 334 942 544 c 0
 942 763 865 1015 584 1015 c 0
 319 1015 227 749 227 540 c 0
 227 331 316 84 588 84 c 0
583 -27 m 0
 263 -27 88 227 88 544 c 0
 88 853 267 1127 587 1127 c 0
 794 1127 933 1023 1011 864 c 1
 1097 1018 1260 1119 1429 1127 c 1
 1683 1127 1840 938 1840 599 c 0
 1840 589 1838 560 1838 531 c 1
 1085 531 l 1
 1083 265 1242 93 1436 93 c 0
 1599 93 1704 154 1786 208 c 1
 1829 108 l 1
 1741 28 1605 -27 1432 -27 c 0
 1243 -27 1092 68 1005 234 c 1
 920 76 782 -27 583 -27 c 0
EndSplineSet
EndChar

StartChar: ogonek
Encoding: 731 731 398
Width: 596
VWidth: 0
Flags: HW
LayerCount: 2
Fore
SplineSet
313 -337 m 0
 363 -337 379 -338 447 -307 c 1
 447 -408 l 1
 419 -419 356 -437 307 -437 c 0
 201 -437 120 -370 120 -258 c 0
 120 -163 208 -77 311 -14 c 1
 428 -14 l 1
 315 -100 222 -175 222 -246 c 0
 222 -307 277 -337 313 -337 c 0
EndSplineSet
EndChar

StartChar: omega
Encoding: 969 969 403
Width: 468
VWidth: 0
Flags: HW
LayerCount: 2
Fore
SplineSet
237 796 m 0
 326 796 370 730 370 664 c 0
 370 598 326 532 237 532 c 0
 149 532 104 598 104 664 c 0
 104 730 149 796 237 796 c 0
EndSplineSet
EndChar

StartChar: omegatonos
Encoding: 974 974 404
Width: 468
VWidth: 0
Flags: HW
LayerCount: 2
Fore
SplineSet
237 796 m 0
 326 796 370 730 370 664 c 0
 370 598 326 532 237 532 c 0
 149 532 104 598 104 664 c 0
 104 730 149 796 237 796 c 0
EndSplineSet
EndChar

StartChar: omicrontonos
Encoding: 972 972 406
Width: 468
VWidth: 0
Flags: HW
LayerCount: 2
Fore
SplineSet
237 796 m 0
 326 796 370 730 370 664 c 0
 370 598 326 532 237 532 c 0
 149 532 104 598 104 664 c 0
 104 730 149 796 237 796 c 0
EndSplineSet
EndChar

StartChar: one
Encoding: 49 49 407
Width: 599
VWidth: 0
Flags: HW
LayerCount: 2
Fore
SplineSet
287 1520 m 1
 418 1520 l 1
 418 0 l 1
 275 0 l 1
 275 1372 l 1
 169 1294 131 1291 34 1257 c 1
 34 1401 l 1
 152 1460 180 1437 287 1520 c 1
EndSplineSet
EndChar

StartChar: onehalf
Encoding: 189 189 408
Width: 1493
VWidth: 0
Flags: HW
LayerCount: 2
Fore
SplineSet
1089 1597 m 1
 1195 1597 l 1
 319 0 l 1
 215 0 l 1
 1089 1597 l 1
1292 658 m 0
 1292 752 1229 811 1155 811 c 0
 1085 811 1005 777 941 674 c 1
 949 653 859 705 859 705 c 1
 901 828 1036 890 1152 890 c 0
 1280 890 1403 832 1403 674 c 0
 1403 479 1193 269 964 45 c 1
 1385 45 l 1
 1393 -30 l 1
 842 -30 l 1
 841 34 l 1
 1109 332 1292 546 1292 658 c 0
129 1404 m 1
 129 1476 l 1
 211 1522 209 1543 263 1603 c 1
 327 1574 l 1
 327 744 l 1
 443 744 l 1
 443 683 l 1
 139 683 l 1
 139 744 l 1
 246 744 l 1
 247 1479 l 1
 196 1441 188 1439 129 1404 c 1
EndSplineSet
EndChar

StartChar: onequarter
Encoding: 188 188 409
Width: 1553
VWidth: 0
Flags: HW
LayerCount: 2
Fore
SplineSet
1016 385 m 1
 1278 385 l 1
 1278 385 1278 721 1279 763 c 1
 1016 385 l 1
1091 1597 m 1
 1199 1597 l 1
 321 0 l 1
 218 0 l 1
 1091 1597 l 1
1363 60 m 1
 1279 60 l 1
 1279 278 l 1
 895 278 l 1
 895 349 l 1
 1270 921 l 1
 1365 921 l 1
 1365 385 l 1
 1449 385 l 1
 1463 278 l 1
 1362 278 l 1
 1363 60 l 1
139 1404 m 1
 139 1476 l 1
 221 1522 207 1516 261 1575 c 1
 336 1574 l 1
 336 744 l 1
 453 744 l 1
 453 683 l 1
 149 683 l 1
 149 744 l 1
 256 744 l 1
 256 1479 l 1
 205 1441 198 1439 139 1404 c 1
EndSplineSet
EndChar

StartChar: ordfeminine
Encoding: 170 170 410
Width: 830
VWidth: 0
Flags: HW
LayerCount: 2
Fore
SplineSet
144 798 m 1
 682 798 l 1
 682 701 l 1
 144 701 l 1
 144 798 l 1
393 976 m 0
 535 976 575 1131 560 1283 c 1
 560 1254 l 1
 455 1247 254 1268 254 1101 c 0
 254 1008 310 976 393 976 c 0
373 876 m 0
 244 876 152 973 152 1108 c 0
 152 1288 299 1330 560 1341 c 1
 560 1341 560 1341 560 1349 c 0
 556 1476 531 1532 427 1532 c 0
 351 1532 287 1534 228 1424 c 1
 158 1481 l 1
 225 1611 315 1641 428 1641 c 0
 550 1641 656 1561 656 1371 c 1
 653 1048 l 2
 653 1029 655 1039 661 902 c 1
 551 902 l 1
 555 977 l 1
 516 916 464 876 373 876 c 0
EndSplineSet
EndChar

StartChar: oslash
Encoding: 248 248 411
Width: 1206
VWidth: 0
Flags: HW
LayerCount: 2
Fore
SplineSet
613 81 m 0
 874 81 968 329 968 545 c 0
 968 706 927 868 817 956 c 1
 469 108 l 1
 510 90 559 81 613 81 c 0
395 151 m 1
 741 995 l 1
 703 1008 659 1015 609 1015 c 0
 348 1015 236 753 236 540 c 0
 236 396 286 240 395 151 c 1
296 -308 m 1
 221 -268 l 1
 348 42 l 1
 186 142 97 335 97 545 c 0
 97 847 287 1127 612 1127 c 0
 676 1127 735 1115 787 1096 c 1
 911 1425 l 1
 991 1389 l 1
 865 1059 l 1
 1027 959 1108 760 1108 547 c 0
 1108 257 930 -31 610 -31 c 0
 541 -31 479 -19 423 4 c 1
 296 -308 l 1
EndSplineSet
EndChar

StartChar: p
Encoding: 112 112 414
Width: 1175
VWidth: 0
Flags: HW
PickledData: "(dp1
S'com.typemytype.robofont.layerData'
p2
(dp3
s."
LayerCount: 2
Fore
SplineSet
614 78 m 0
 850 78 948 321 948 544 c 0
 948 768 853 1011 613 1011 c 0
 358 1011 270 818 270 563 c 0
 270 273 349 78 614 78 c 0
147 -488 m 1
 147 1096 l 1
 258 1096 l 1
 269 940 l 1
 364 1049 461 1116 611 1116 c 0
 934 1116 1078 881 1078 535 c 0
 1078 213 907 -24 622 -24 c 0
 476 -24 339 52 266 161 c 1
 269 87 271 7 271 -81 c 2
 271 -479 l 1
 147 -488 l 1
EndSplineSet
EndChar

StartChar: paragraph
Encoding: 182 182 415
Width: 1007
VWidth: 0
Flags: HW
LayerCount: 2
Fore
SplineSet
381 -163 m 1
 381 890 l 1
 153 886 -17 1087 -17 1257 c 0
 -17 1382 60 1611 394 1611 c 2
 882 1611 l 1
 882 1506 l 1
 810 1506 l 1
 810 -163 l 1
 718 -163 l 1
 718 1506 l 1
 475 1506 l 1
 475 -163 l 1
 381 -163 l 1
EndSplineSet
EndChar

StartChar: parenleft
Encoding: 40 40 416
Width: 590
VWidth: 0
Flags: HW
LayerCount: 2
Fore
SplineSet
108 598 m 0
 108 922 203 1225 376 1485 c 1
 495 1485 l 1
 301 1156 242 895 242 604 c 0
 242 337 307 45 495 -268 c 1
 379 -268 l 1
 210 -34 108 287 108 598 c 0
EndSplineSet
EndChar

StartChar: parenright
Encoding: 41 41 417
Width: 590
VWidth: 0
Flags: HW
LayerCount: 2
Fore
SplineSet
482 598 m 0
 482 284 378 -33 210 -268 c 1
 95 -268 l 1
 282 44 348 336 348 604 c 0
 348 895 288 1156 94 1485 c 1
 212 1485 l 1
 384 1224 482 920 482 598 c 0
EndSplineSet
EndChar

StartChar: period
Encoding: 46 46 418
Width: 517
VWidth: 0
Flags: HW
LayerCount: 2
Fore
SplineSet
275 -8 m 0
 187 -8 152 55 152 111 c 0
 152 166 186 228 275 228 c 0
 365 228 399 166 399 111 c 0
 399 55 365 -8 275 -8 c 0
EndSplineSet
EndChar

StartChar: periodcentered
Encoding: 183 183 419
Width: 489
VWidth: 0
Flags: HW
LayerCount: 2
Fore
SplineSet
312 772 m 1
 312 610 l 1
 177 610 l 1
 177 772 l 1
 312 772 l 1
EndSplineSet
EndChar

StartChar: phi
Encoding: 966 966 420
Width: 468
VWidth: 0
Flags: HW
LayerCount: 2
Fore
SplineSet
237 796 m 0
 326 796 370 730 370 664 c 0
 370 598 326 532 237 532 c 0
 149 532 104 598 104 664 c 0
 104 730 149 796 237 796 c 0
EndSplineSet
EndChar

StartChar: pi
Encoding: 960 960 421
Width: 1472
VWidth: 0
Flags: HW
LayerCount: 2
Fore
SplineSet
1285 1128 m 1
 1285 1009 l 1
 1109 1009 l 1
 1109 306 l 2
 1109 253 1108 135 1205 135 c 0
 1217 135 1240 136 1268 143 c 1
 1269 174 1274 6 1274 6 c 1
 1229 -2 1193 -8 1163 -8 c 0
 1047 -8 1002 49 1002 294 c 2
 1001 1007 l 1
 572 1007 l 1
 555 550 524 103 463 0 c 1
 345 0 l 1
 425 171 444 535 454 1004 c 1
 352 1003 278 989 218 946 c 1
 207 1066 l 1
 252 1115 341 1128 490 1128 c 2
 1285 1128 l 1
EndSplineSet
EndChar

StartChar: plus
Encoding: 43 43 422
Width: 1101
VWidth: 0
Flags: HW
LayerCount: 2
Fore
SplineSet
612 700 m 1
 994 700 l 1
 994 600 l 1
 611 600 l 1
 611 157 l 1
 502 157 l 1
 502 600 l 1
 110 600 l 1
 110 700 l 1
 503 700 l 1
 503 1135 l 1
 612 1135 l 1
 612 700 l 1
EndSplineSet
EndChar

StartChar: plusminus
Encoding: 177 177 423
Width: 1163
VWidth: 0
Flags: HW
LayerCount: 2
Fore
SplineSet
632 765 m 1
 1067 765 l 1
 1067 654 l 1
 635 654 l 1
 635 215 l 1
 526 215 l 1
 526 654 l 1
 95 654 l 1
 95 765 l 1
 525 765 l 1
 525 1213 l 1
 632 1213 l 1
 632 765 l 1
95 0 m 1
 95 121 l 1
 1070 121 l 1
 1070 0 l 1
 95 0 l 1
EndSplineSet
EndChar

StartChar: psi
Encoding: 968 968 424
Width: 468
VWidth: 0
Flags: HW
LayerCount: 2
Fore
SplineSet
237 796 m 0
 326 796 370 730 370 664 c 0
 370 598 326 532 237 532 c 0
 149 532 104 598 104 664 c 0
 104 730 149 796 237 796 c 0
EndSplineSet
EndChar

StartChar: q
Encoding: 113 113 425
Width: 1179
VWidth: 0
Flags: HW
PickledData: "(dp1
S'com.typemytype.robofont.layerData'
p2
(dp3
s."
LayerCount: 2
Fore
SplineSet
554 84 m 0
 810 84 902 266 905 525 c 1
 905 813 817 1009 553 1009 c 0
 309 1009 228 767 228 544 c 0
 228 309 309 84 554 84 c 0
554 -24 m 0
 258 -24 97 214 97 532 c 0
 97 874 256 1116 562 1116 c 0
 702 1116 819 1050 913 931 c 1
 921 1096 l 1
 1032 1096 l 1
 1032 -481 l 1
 908 -488 l 1
 908 13 l 2
 908 74 910 124 913 165 c 1
 830 33 675 -24 554 -24 c 0
EndSplineSet
EndChar

StartChar: question
Encoding: 63 63 426
Width: 855
VWidth: 0
Flags: HW
LayerCount: 2
Fore
SplineSet
252 111 m 0
 252 166 287 228 375 228 c 0
 465 228 499 166 499 111 c 0
 499 55 465 -8 375 -8 c 0
 287 -8 252 55 252 111 c 0
390 427 m 1
 314 427 l 1
 297 624 600 1030 600 1234 c 1
 598 1377 501 1420 367 1420 c 0
 254 1420 160 1367 117 1341 c 1
 83 1456 l 1
 168 1530 307 1547 394 1547 c 0
 616 1547 742 1426 742 1235 c 0
 742 940 538 780 390 427 c 1
EndSplineSet
EndChar

StartChar: quotedbl
Encoding: 34 34 428
Width: 676
VWidth: 0
Flags: HW
LayerCount: 2
Fore
SplineSet
168 1056 m 1
 153 1536 l 1
 271 1536 l 1
 239 1056 l 1
 168 1056 l 1
427 1056 m 1
 412 1536 l 1
 530 1536 l 1
 498 1056 l 1
 427 1056 l 1
EndSplineSet
EndChar

StartChar: quotedblbase
Encoding: 8222 8222 429
Width: 734
VWidth: 0
Flags: HW
LayerCount: 2
Fore
SplineSet
409 -240 m 1
 487 218 l 1
 621 218 l 1
 498 -240 l 1
 409 -240 l 1
111 -240 m 1
 192 218 l 1
 321 218 l 1
 204 -240 l 1
 111 -240 l 1
EndSplineSet
EndChar

StartChar: quotedblleft
Encoding: 8220 8220 430
Width: 854
VWidth: 0
Flags: HW
LayerCount: 2
Fore
SplineSet
104 1161 m 1
 341 1619 l 1
 420 1619 l 1
 259 1161 l 1
 104 1161 l 1
419 1161 m 1
 653 1619 l 1
 732 1619 l 1
 573 1161 l 1
 419 1161 l 1
EndSplineSet
EndChar

StartChar: quotedblright
Encoding: 8221 8221 431
Width: 723
VWidth: 0
Flags: HW
LayerCount: 2
Fore
SplineSet
394 1161 m 1
 481 1619 l 1
 619 1619 l 1
 492 1161 l 1
 394 1161 l 1
113 1161 m 1
 200 1619 l 1
 335 1619 l 1
 206 1161 l 1
 113 1161 l 1
EndSplineSet
EndChar

StartChar: quoteleft
Encoding: 8216 8216 432
Width: 541
VWidth: 0
Flags: HW
LayerCount: 2
Fore
SplineSet
104 1161 m 1
 344 1619 l 1
 420 1619 l 1
 258 1161 l 1
 104 1161 l 1
EndSplineSet
EndChar

StartChar: quoteright
Encoding: 8217 8217 433
Width: 532
VWidth: 0
Flags: HW
LayerCount: 2
Fore
SplineSet
259 1161 m 1
 166 1161 l 1
 252 1619 l 1
 382 1619 l 1
 259 1161 l 1
EndSplineSet
EndChar

StartChar: quotesinglbase
Encoding: 8218 8218 434
Width: 480
VWidth: 0
Flags: HW
LayerCount: 2
Fore
SplineSet
130 -240 m 1
 215 218 l 1
 349 218 l 1
 227 -240 l 1
 130 -240 l 1
EndSplineSet
EndChar

StartChar: quotesingle
Encoding: 39 39 435
Width: 415
VWidth: 0
Flags: HW
LayerCount: 2
Fore
SplineSet
267 1500 m 1
 247 1006 l 1
 152 1006 l 1
 137 1500 l 1
 267 1500 l 1
EndSplineSet
EndChar

StartChar: r
Encoding: 114 114 436
Width: 715
VWidth: 0
Flags: HW
PickledData: "(dp1
S'com.typemytype.robofont.layerData'
p2
(dp3
s."
LayerCount: 2
Fore
SplineSet
597 1102 m 0
 629 1102 658 1099 685 1095 c 1
 678 989 l 1
 648 994 622 998 600 998 c 0
 412 998 272 825 272 629 c 2
 272 0 l 1
 149 0 l 1
 149 0 147 965 147 1096 c 1
 249 1096 l 1
 257 880 l 1
 332 1005 461 1102 597 1102 c 0
EndSplineSet
EndChar

StartChar: registered
Encoding: 174 174 440
Width: 1865
VWidth: 0
Flags: HW
LayerCount: 2
Fore
SplineSet
940 735 m 1
 742 735 l 1
 742 321 l 1
 618 321 l 1
 618 1311 l 1
 856 1311 l 2
 1195 1311 1338 1204 1338 1035 c 0
 1338 915 1273 772 1058 755 c 1
 1164 682 1188 596 1349 321 c 1
 1208 321 l 1
 1083 541 l 1
 1036 621 1003 681 940 735 c 1
871 863 m 2
 1071 863 1175 896 1175 1023 c 0
 1175 1155 1089 1182 861 1182 c 2
 743 1182 l 1
 743 863 l 1
 871 863 l 2
918 60 m 0
 1398 60 1614 395 1614 803 c 0
 1614 1209 1394 1552 911 1552 c 0
 460 1552 241 1211 241 810 c 0
 241 398 462 60 918 60 c 0
1726 807 m 0
 1726 208 1329 -28 918 -28 c 0
 538 -28 129 208 129 807 c 0
 129 1404 531 1640 911 1640 c 0
 1323 1640 1726 1401 1726 807 c 0
EndSplineSet
EndChar

StartChar: ring
Encoding: 730 730 442
Width: 621
VWidth: 0
Flags: HW
LayerCount: 2
Fore
SplineSet
316 1672 m 0
 402 1672 498 1611 498 1495 c 0
 498 1375 399 1332 318 1332 c 0
 230 1332 132 1375 132 1495 c 0
 132 1622 232 1672 316 1672 c 0
316 1392 m 0
 359 1392 407 1432 407 1495 c 0
 407 1567 381 1608 316 1608 c 0
 260 1608 220 1578 220 1495 c 0
 220 1423 259 1392 316 1392 c 0
EndSplineSet
EndChar

StartChar: s
Encoding: 115 115 443
Width: 944
VWidth: 0
Flags: HW
LayerCount: 2
Fore
SplineSet
467 -25 m 0
 315 -25 185 20 121 63 c 1
 139 167 l 1
 208 131 319 81 455 81 c 0
 626 81 729 143 736 282 c 1
 736 390 688 441 463 516 c 1
 463 516 363 553 368 549 c 1
 170 609 110 710 109 824 c 1
 109 966 240 1116 485 1116 c 0
 609 1116 716 1090 810 1048 c 1
 768 956 l 1
 683 988 587 1014 482 1014 c 0
 327 1014 233 939 233 822 c 0
 233 726 275 689 449 631 c 0
 477 621 508 611 543 600 c 0
 778 527 852 441 852 277 c 1
 848 82 693 -25 467 -25 c 0
EndSplineSet
EndChar

StartChar: semicolon
Encoding: 59 59 449
Width: 550
VWidth: 0
Flags: HW
LayerCount: 2
Fore
SplineSet
370 165 m 1
 245 -302 l 1
 152 -302 l 1
 208 165 l 1
 370 165 l 1
197 928 m 1
 197 1136 l 1
 376 1136 l 1
 376 928 l 1
 197 928 l 1
EndSplineSet
EndChar

StartChar: seven
Encoding: 55 55 450
Width: 1059
VWidth: 0
Flags: HW
LayerCount: 2
Fore
SplineSet
276 0 m 1
 806 1396 l 1
 116 1396 l 1
 131 1521 l 1
 965 1521 l 1
 965 1398 l 1
 419 0 l 1
 276 0 l 1
EndSplineSet
EndChar

StartChar: sigma
Encoding: 963 963 451
Width: 468
VWidth: 0
Flags: HW
LayerCount: 2
Fore
SplineSet
237 796 m 0
 326 796 370 730 370 664 c 0
 370 598 326 532 237 532 c 0
 149 532 104 598 104 664 c 0
 104 730 149 796 237 796 c 0
EndSplineSet
EndChar

StartChar: sigma1
Encoding: 962 962 452
Width: 468
VWidth: 0
Flags: HW
LayerCount: 2
Fore
SplineSet
237 796 m 0
 326 796 370 730 370 664 c 0
 370 598 326 532 237 532 c 0
 149 532 104 598 104 664 c 0
 104 730 149 796 237 796 c 0
EndSplineSet
EndChar

StartChar: six
Encoding: 54 54 453
Width: 1196
VWidth: 0
Flags: HW
LayerCount: 2
Fore
SplineSet
273 454 m 0
 273 273 380 96 600 96 c 0
 817 96 933 262 933 442 c 0
 933 636 807 798 599 798 c 0
 365 798 273 632 273 454 c 0
626 922 m 0
 862 922 1084 721 1084 444 c 0
 1084 191 906 -24 604 -24 c 0
 285 -24 121 223 121 478 c 0
 121 723 188 865 428 1187 c 1
 543 1348 727 1511 727 1511 c 1
 913 1511 l 1
 353 838 l 1
 427 886 531 922 626 922 c 0
EndSplineSet
EndChar

StartChar: slash
Encoding: 47 47 454
Width: 953
VWidth: 0
Flags: HW
LayerCount: 2
Fore
SplineSet
161 -237 m 1
 49 -237 l 1
 750 1451 l 1
 863 1451 l 1
 161 -237 l 1
EndSplineSet
EndChar

StartChar: sterling
Encoding: 163 163 456
Width: 1124
VWidth: 0
Flags: HW
LayerCount: 2
Fore
SplineSet
693 1514 m 0
 839 1514 952 1461 1037 1390 c 1
 971 1303 l 1
 883 1375 793 1409 690 1409 c 0
 475 1409 414 1236 414 977 c 2
 414 800 l 1
 832 800 l 1
 832 695 l 1
 414 695 l 1
 414 526 l 2
 414 342 403 202 287 113 c 1
 331 116 333 121 376 121 c 2
 1051 121 l 1
 1055 0 l 1
 101 0 l 1
 92 105 l 1
 230 153 277 275 277 436 c 2
 277 696 l 1
 91 696 l 1
 91 800 l 1
 277 800 l 1
 277 890 l 2
 277 1189 323 1514 693 1514 c 0
EndSplineSet
EndChar

StartChar: summation
Encoding: 8721 8721 457
Width: 1294
VWidth: 0
Flags: HW
LayerCount: 2
Fore
SplineSet
1193 -232 m 1
 1193 -369 l 1
 92 -369 l 1
 92 -284 l 1
 716 615 l 1
 115 1494 l 1
 115 1581 l 1
 1155 1581 l 1
 1155 1453 l 1
 287 1453 l 1
 909 623 l 1
 264 -232 l 1
 1193 -232 l 1
EndSplineSet
EndChar

StartChar: t
Encoding: 116 116 458
Width: 671
VWidth: 0
Flags: HW
PickledData: "(dp1
S'com.typemytype.robofont.layerData'
p2
(dp3
s."
LayerCount: 2
Fore
SplineSet
456 -23 m 0
 274 -23 190 53 190 243 c 2
 190 1005 l 5
 35 1005 l 5
 37 1079 l 1
 192 1094 l 1
 225 1345 l 1
 312 1351 l 1
 312 1096 l 1
 632 1096 l 1
 632 1005 l 5
 312 1005 l 5
 312 269 l 2
 312 108 362 74 484 74 c 0
 534 74 594 86 638 97 c 1
 643 1 l 1
 537 -20 495 -23 456 -23 c 0
EndSplineSet
EndChar

StartChar: tau
Encoding: 964 964 459
Width: 468
VWidth: 0
Flags: HW
LayerCount: 2
Fore
SplineSet
237 796 m 0
 326 796 370 730 370 664 c 0
 370 598 326 532 237 532 c 0
 149 532 104 598 104 664 c 0
 104 730 149 796 237 796 c 0
EndSplineSet
EndChar

StartChar: theta
Encoding: 952 952 462
Width: 468
VWidth: 0
Flags: HW
LayerCount: 2
Fore
SplineSet
237 796 m 0
 326 796 370 730 370 664 c 0
 370 598 326 532 237 532 c 0
 149 532 104 598 104 664 c 0
 104 730 149 796 237 796 c 0
EndSplineSet
EndChar

StartChar: thorn
Encoding: 254 254 463
Width: 1167
VWidth: 0
Flags: HW
LayerCount: 2
Fore
SplineSet
592 71 m 0
 839 71 904 370 904 564 c 0
 904 760 842 1053 601 1053 c 0
 371 1053 247 812 247 564 c 0
 247 316 344 71 592 71 c 0
249 191 m 1
 249 -477 l 1
 108 -477 l 1
 108 1219 l 1
 110 1518 l 1
 249 1518 l 1
 249 930 l 1
 365 1120 479 1158 612 1158 c 1
 863 1155 1050 914 1050 586 c 0
 1050 293 903 -29 605 -29 c 0
 478 -29 350 0 249 191 c 1
EndSplineSet
EndChar

StartChar: three
Encoding: 51 51 464
Width: 1115
VWidth: 0
Flags: HW
LayerCount: 2
Fore
SplineSet
501 -24 m 0
 297 -24 165 49 124 87 c 1
 173 206 l 1
 249 148 345 91 502 91 c 0
 717 91 861 198 861 412 c 0
 861 687 656 752 402 760 c 0
 375 761 369 761 342 761 c 1
 342 874 l 1
 364 874 366 875 388 875 c 0
 598 882 797 922 797 1170 c 0
 797 1375 692 1433 508 1433 c 0
 369 1433 249 1386 173 1318 c 1
 125 1434 l 1
 206 1503 337 1548 553 1548 c 0
 747 1548 961 1440 961 1195 c 0
 961 981 852 864 687 815 c 1
 873 777 995 733 995 418 c 0
 995 156 791 -24 501 -24 c 0
EndSplineSet
EndChar

StartChar: threequarters
Encoding: 190 190 465
Width: 1606
VWidth: 0
Flags: HW
LayerCount: 2
Fore
SplineSet
1066 385 m 1
 1329 385 l 1
 1329 755 1329 673 1333 758 c 1
 1066 385 l 1
1226 1597 m 1
 1346 1597 l 1
 457 0 l 1
 355 0 l 1
 1226 1597 l 1
1416 66 m 1
 1332 66 l 1
 1332 281 l 1
 945 281 l 1
 945 350 l 1
 1321 912 l 1
 1417 912 l 1
 1417 385 l 1
 1504 385 l 1
 1515 281 l 1
 1416 281 l 1
 1416 66 l 1
177 1385 m 1
 133 1485 l 1
 181 1555 254 1609 332 1608 c 0
 447 1607 585 1500 585 1346 c 0
 585 1220 544 1175 476 1132 c 1
 563 1085 605 1020 605 909 c 0
 605 748 466 638 329 638 c 0
 247 638 178 679 129 756 c 1
 182 847 l 1
 235 782 273 748 325 748 c 0
 407 748 485 817 485 912 c 0
 485 1034 408 1073 290 1073 c 1
 253 1074 l 1
 253 1197 l 1
 281 1197 l 2
 377 1197 464 1224 464 1346 c 0
 464 1449 406 1487 335 1487 c 0
 275 1487 232 1449 177 1385 c 1
EndSplineSet
EndChar

StartChar: tilde
Encoding: 732 732 466
Width: 930
VWidth: 0
Flags: HW
LayerCount: 2
Fore
SplineSet
237 1332 m 1
 147 1332 l 1
 147 1513 234 1537 319 1537 c 0
 436 1537 615 1440 603 1437 c 1
 645 1442 645 1502 649 1537 c 1
 740 1537 l 1
 740 1373 683 1332 599 1332 c 0
 518 1332 283 1433 294 1433 c 1
 261 1432 241 1383 237 1332 c 1
EndSplineSet
EndChar

StartChar: tonos
Encoding: 900 900 467
Width: 468
VWidth: 0
Flags: HW
LayerCount: 2
Fore
SplineSet
237 796 m 0
 326 796 370 730 370 664 c 0
 370 598 326 532 237 532 c 0
 149 532 104 598 104 664 c 0
 104 730 149 796 237 796 c 0
EndSplineSet
EndChar

StartChar: trademark
Encoding: 8482 8482 468
Width: 1808
VWidth: 0
Flags: HW
LayerCount: 2
Fore
SplineSet
99 1513 m 1
 724 1513 l 1
 724 1441 l 1
 451 1441 l 1
 451 571 l 1
 361 571 l 1
 361 1441 l 1
 99 1441 l 1
 99 1513 l 1
871 1513 m 1
 1001 1513 l 1
 1292 758 l 1
 1597 1513 l 1
 1723 1513 l 1
 1723 571 l 1
 1630 571 l 1
 1630 1438 l 1
 1324 677 l 1
 1246 677 l 1
 958 1442 l 1
 958 571 l 1
 871 571 l 1
 871 1513 l 1
EndSplineSet
EndChar

StartChar: two
Encoding: 50 50 469
Width: 1144
VWidth: 0
Flags: HW
LayerCount: 2
Fore
SplineSet
133 0 m 1
 102 130 l 1
 640 747 l 1
 768 896 847 1205 847 1140 c 1
 847 1330 754 1426 567 1426 c 0
 444 1426 314 1404 226 1306 c 1
 176 1425 l 1
 250 1495 379 1548 578 1548 c 0
 847 1548 1006 1387 1006 1158 c 1
 1006 1271 924 857 745 654 c 2
 278 126 l 1
 1018 126 l 1
 1010 0 l 1
 133 0 l 1
EndSplineSet
EndChar

StartChar: u
Encoding: 117 117 470
Width: 1087
VWidth: 0
Flags: HW
PickledData: "(dp1
S'com.typemytype.robofont.layerData'
p2
(dp3
s."
LayerCount: 2
Fore
SplineSet
111 350 m 2
 111 1096 l 1
 235 1096 l 5
 235 347 l 2
 235 130 377 84 543 84 c 0
 707 84 847 133 847 347 c 2
 847 1096 l 1
 971 1096 l 1
 971 350 l 2
 971 60 759 -27 543 -27 c 0
 327 -27 111 64 111 350 c 2
EndSplineSet
EndChar

StartChar: underscore
Encoding: 95 95 479
Width: 1053
VWidth: 0
Flags: HW
LayerCount: 2
Fore
SplineSet
978 -295 m 1
 73 -295 l 1
 73 -187 l 1
 978 -187 l 1
 978 -295 l 1
EndSplineSet
EndChar

StartChar: uni00AD
Encoding: 173 173 482
Width: 1038
VWidth: 0
Flags: HW
LayerCount: 2
Fore
SplineSet
123 140 m 1
 123 255 l 1
 922 255 l 1
 922 140 l 1
 123 140 l 1
EndSplineSet
EndChar

StartChar: uni00B9
Encoding: 185 185 483
Width: 536
VWidth: 0
Flags: HW
LayerCount: 2
Fore
SplineSet
118 1404 m 1
 118 1476 l 1
 199 1522 186 1516 239 1575 c 1
 315 1574 l 1
 315 744 l 1
 432 744 l 1
 432 683 l 1
 128 683 l 1
 128 744 l 1
 235 744 l 1
 235 1479 l 1
 184 1441 177 1439 118 1404 c 1
EndSplineSet
EndChar

StartChar: uni018F
Encoding: 399 399 484
Width: 1422
VWidth: 0
Flags: HW
LayerCount: 2
Fore
SplineSet
665 -24 m 0
 174 -24 37 414 24 600 c 1
 24 657 34 770 34 770 c 1
 1161 770 l 1
 1161 1083 1018 1438 591 1438 c 0
 436 1438 324 1374 223 1304 c 1
 164 1407 l 1
 292 1500 400 1548 606 1548 c 0
 1074 1548 1311 1193 1311 769 c 0
 1311 329 1052 -24 665 -24 c 0
1154 655 m 1
 172 655 l 1
 184 452 250 88 666 88 c 0
 945 88 1123 344 1154 655 c 1
EndSplineSet
EndChar

StartChar: uni0237
Encoding: 567 567 570
Width: 406
VWidth: 0
Flags: HW
LayerCount: 2
Fore
SplineSet
294 1104 m 1
 294 -296 l 2
 294 -533 240 -594 -5 -594 c 2
 -63 -594 l 1
 -92 -473 l 1
 -33 -473 l 2
 157 -473 157 -400 157 -237 c 2
 157 1104 l 1
 294 1104 l 1
EndSplineSet
EndChar

StartChar: uni0259
Encoding: 601 601 571
Width: 1080
VWidth: 0
Flags: HW
LayerCount: 2
Fore
SplineSet
521 73 m 0
 712 73 825 248 845 460 c 1
 220 460 l 1
 220 200 350 73 521 73 c 0
508 1117 m 0
 800 1117 987 895 987 542 c 0
 987 212 392 -27 507 -27 c 1
 253 -27 91 151 91 491 c 0
 91 501 93 543 93 558 c 1
 852 558 l 1
 854 825 699 1003 505 1003 c 0
 342 1003 227 942 144 888 c 1
 102 982 l 1
 190 1062 335 1117 508 1117 c 0
EndSplineSet
EndChar

StartChar: uni0307
Encoding: 775 775 572
Width: 364
VWidth: 0
Flags: HW
LayerCount: 2
Fore
SplineSet
282 1534 m 1
 282 1350 l 1
 105 1350 l 1
 105 1534 l 1
 282 1534 l 1
EndSplineSet
EndChar

StartChar: uni030F
Encoding: 783 783 573
Width: 797
VWidth: 0
Flags: HW
LayerCount: 2
Fore
SplineSet
603 1300 m 1
 379 1633 l 1
 481 1633 l 1
 665 1300 l 1
 603 1300 l 1
379 1300 m 1
 158 1633 l 1
 251 1633 l 1
 449 1300 l 1
 379 1300 l 1
EndSplineSet
EndChar

StartChar: uni0311
Encoding: 785 785 574
Width: 792
VWidth: 0
Flags: HW
LayerCount: 2
Fore
SplineSet
397 1608 m 0
 507 1608 632 1603 632 1345 c 1
 538 1345 l 1
 538 1489 467 1516 397 1516 c 0
 326 1516 259 1489 259 1345 c 1
 167 1345 l 1
 167 1603 287 1608 397 1608 c 0
EndSplineSet
EndChar

StartChar: uni0326
Encoding: 806 806 575
Width: 552
VWidth: 0
Flags: HW
LayerCount: 2
Fore
SplineSet
170 -671 m 1
 257 -185 l 1
 396 -185 l 1
 264 -671 l 1
 170 -671 l 1
EndSplineSet
EndChar

StartChar: uni2074
Encoding: 8308 8308 598
Width: 705
VWidth: 0
Flags: HW
LayerCount: 2
Fore
SplineSet
218 994 m 1
 454 994 l 1
 454 994 454 1391 456 1433 c 1
 218 994 l 1
539 684 m 1
 455 684 l 1
 455 908 l 1
 134 908 l 1
 134 992 l 1
 169 1054 478 1644 441 1567 c 1
 541 1567 l 1
 541 994 l 1
 631 994 l 1
 639 908 l 1
 539 908 l 1
 539 684 l 1
134 992 m 1
 130 985 130 985 134 994 c 1
 134 992 l 1
EndSplineSet
EndChar

StartChar: uniFB01
Encoding: 64257 64257 599
Width: 1044
VWidth: 0
Flags: HW
LayerCount: 2
Fore
SplineSet
778 1505 m 1
 907 1505 l 1
 907 1324 l 1
 778 1324 l 1
 778 1505 l 1
180 0 m 1
 180 1005 l 1
 24 1005 l 1
 24 1098 l 1
 180 1098 l 1
 180 1119 180 1123 181 1143 c 0
 189 1489 297 1531 521 1531 c 2
 597 1531 l 1
 616 1444 l 1
 511 1444 l 2
 324 1444 310 1364 309 1115 c 0
 309 1097 308 1117 308 1098 c 1
 907 1098 l 1
 907 0 l 1
 778 0 l 1
 778 1005 l 1
 308 1005 l 1
 308 0 l 1
 180 0 l 1
EndSplineSet
EndChar

StartChar: uniFB02
Encoding: 64258 64258 600
Width: 1165
VWidth: 0
Flags: HW
LayerCount: 2
Fore
SplineSet
1029 -12 m 1
 1030 -12 l 1
 1029 -12 l 0
 1029 -12 l 1
1029 -12 m 1
 1024 -12 1026 -12 1029 -12 c 1
1029 -12 m 0
 776 -12 775 94 775 502 c 2
 775 1402 l 1
 491 1422 514 1404 514 1404 c 1
 376 1404 317 1338 309 1115 c 0
 309 1097 308 1117 308 1098 c 1
 563 1098 l 1
 563 1005 l 1
 308 1005 l 1
 308 0 l 1
 180 0 l 1
 180 1005 l 1
 24 1005 l 1
 24 1098 l 1
 180 1098 l 1
 180 1113 180 1102 180 1117 c 0
 191 1436 329 1494 523 1494 c 1
 471 1494 385 1519 904 1486 c 1
 904 467 l 2
 904 190 900 93 1057 93 c 0
 1072 93 1064 91 1134 97 c 1
 1145 1 l 1
 1068 -8 1038 -11 1029 -12 c 0
EndSplineSet
EndChar

StartChar: upsilon
Encoding: 965 965 602
Width: 468
VWidth: 0
Flags: HW
LayerCount: 2
Fore
SplineSet
237 796 m 0
 326 796 370 730 370 664 c 0
 370 598 326 532 237 532 c 0
 149 532 104 598 104 664 c 0
 104 730 149 796 237 796 c 0
EndSplineSet
EndChar

StartChar: upsilondieresis
Encoding: 971 971 603
Width: 468
VWidth: 0
Flags: HW
LayerCount: 2
Fore
SplineSet
237 796 m 0
 326 796 370 730 370 664 c 0
 370 598 326 532 237 532 c 0
 149 532 104 598 104 664 c 0
 104 730 149 796 237 796 c 0
EndSplineSet
EndChar

StartChar: upsilondieresistonos
Encoding: 944 944 604
Width: 468
VWidth: 0
Flags: HW
LayerCount: 2
Fore
SplineSet
237 796 m 0
 326 796 370 730 370 664 c 0
 370 598 326 532 237 532 c 0
 149 532 104 598 104 664 c 0
 104 730 149 796 237 796 c 0
EndSplineSet
EndChar

StartChar: upsilontonos
Encoding: 973 973 605
Width: 468
VWidth: 0
Flags: HW
LayerCount: 2
Fore
SplineSet
237 796 m 0
 326 796 370 730 370 664 c 0
 370 598 326 532 237 532 c 0
 149 532 104 598 104 664 c 0
 104 730 149 796 237 796 c 0
EndSplineSet
EndChar

StartChar: v
Encoding: 118 118 608
Width: 989
VWidth: 0
Flags: HW
PickledData: "(dp1
S'com.typemytype.robofont.layerData'
p2
(dp3
s."
LayerCount: 2
Fore
SplineSet
419 0 m 1
 1 1096 l 1
 134 1096 l 1
 388 405 l 1
 434 258 497 111 497 111 c 1
 534 239 551 241 602 402 c 0
 672 624 704 630 855 1096 c 1
 988 1096 l 1
 563 0 l 1
 419 0 l 1
EndSplineSet
EndChar

StartChar: w
Encoding: 119 119 609
Width: 1557
VWidth: 0
Flags: HW
PickledData: "(dp1
S'com.typemytype.robofont.layerData'
p2
(dp3
s."
LayerCount: 2
Fore
SplineSet
1090 0 m 1
 1086 -1 807 860 780 960 c 1
 754 840 473 -1 472 0 c 1
 328 0 l 1
 22 1096 l 1
 152 1096 l 1
 400 137 l 1
 414 172 678 995 710 1096 c 1
 862 1096 l 1
 896 985 1155 204 1170 140 c 1
 1406 1096 l 1
 1535 1096 l 1
 1234 0 l 1
 1090 0 l 1
EndSplineSet
EndChar

StartChar: x
Encoding: 120 120 614
Width: 1012
VWidth: 0
Flags: HW
PickledData: "(dp1
S'com.typemytype.robofont.layerData'
p2
(dp3
s."
LayerCount: 2
Fore
SplineSet
446 555 m 1
 50 1096 l 1
 192 1096 l 1
 508 649 l 1
 822 1096 l 1
 967 1096 l 1
 572 551 l 1
 975 0 l 1
 842 0 l 1
 509 469 l 1
 180 0 l 1
 37 0 l 1
 446 555 l 1
EndSplineSet
EndChar

StartChar: xi
Encoding: 958 958 615
Width: 468
VWidth: 0
Flags: HW
LayerCount: 2
Fore
SplineSet
237 796 m 0
 326 796 370 730 370 664 c 0
 370 598 326 532 237 532 c 0
 149 532 104 598 104 664 c 0
 104 730 149 796 237 796 c 0
EndSplineSet
EndChar

StartChar: y
Encoding: 121 121 616
Width: 981
VWidth: 0
Flags: HW
LayerCount: 2
Fore
SplineSet
7 1096 m 1
 137 1096 l 1
 510 110 l 1
 484 -23 865 1225 836 1096 c 1
 966 1096 l 1
 966 1096 528 -135 508 -192 c 1
 422 -398 316 -520 98 -520 c 0
 69 -520 40 -517 13 -512 c 1
 4 -410 l 1
 28 -411 51 -413 73 -413 c 0
 239 -413 301 -364 367 -195 c 1
 389 -134 414 -69 438 0 c 1
 7 1096 l 1
EndSplineSet
EndChar

StartChar: z
Encoding: 122 122 621
Width: 882
VWidth: 0
Flags: HW
LayerCount: 2
Fore
SplineSet
816 0 m 1
 89 0 l 1
 89 104 l 1
 668 997 l 1
 99 997 l 1
 99 1096 l 1
 798 1096 l 1
 798 979 l 1
 217 93 l 1
 816 93 l 1
 816 0 l 1
EndSplineSet
EndChar

StartChar: zero
Encoding: 48 48 625
Width: 1216
VWidth: 0
Flags: HW
LayerCount: 2
Fore
SplineSet
609 1433 m 0
 407 1433 268 1177 269 766 c 1
 269 348 407 91 608 91 c 0
 810 91 949 350 949 768 c 0
 949 1177 810 1433 609 1433 c 0
609 -24 m 0
 265 -24 113 297 113 763 c 0
 113 1259 285 1548 609 1548 c 0
 933 1548 1101 1260 1101 763 c 0
 1101 297 952 -24 609 -24 c 0
EndSplineSet
EndChar

StartChar: zeta
Encoding: 950 950 626
Width: 468
VWidth: 0
Flags: HW
LayerCount: 2
Fore
SplineSet
237 796 m 0
 326 796 370 730 370 664 c 0
 370 598 326 532 237 532 c 0
 149 532 104 598 104 664 c 0
 104 730 149 796 237 796 c 0
EndSplineSet
EndChar
